G04 DipTrace 3.3.0.0*
G04 ESP32externalssr.gbs*
%MOIN*%
G04 #@! TF.FileFunction,Soldermask,Bot*
G04 #@! TF.Part,Single*
%ADD42C,0.125984*%
%ADD49C,0.067087*%
%ADD51R,0.067087X0.067087*%
%ADD65C,0.074961*%
%ADD67R,0.074961X0.074961*%
%ADD69O,0.053307X0.04937*%
%ADD71R,0.053307X0.04937*%
%ADD73C,0.098583*%
%ADD75R,0.098583X0.098583*%
%FSLAX26Y26*%
G04*
G70*
G90*
G75*
G01*
G04 BotMask*
%LPD*%
D75*
X630236Y2796378D3*
D73*
Y2952283D3*
D75*
Y2363307D3*
D73*
Y2519213D3*
D75*
Y1930236D3*
D73*
Y2086142D3*
D71*
X1968819Y2773307D3*
D69*
Y2724094D3*
Y2674882D3*
Y2625669D3*
Y2576457D3*
Y2527244D3*
D67*
Y2156516D3*
D65*
Y2056516D3*
Y1956516D3*
Y1856516D3*
D75*
X630236Y1497165D3*
D73*
Y1653071D3*
D51*
X1879055Y472756D3*
D49*
X1779055D3*
X1679055D3*
X1579055D3*
X1479055D3*
X1379055D3*
X1279055D3*
X1179055D3*
X1079055D3*
X979055D3*
X879055D3*
X779055D3*
X679055D3*
X579055D3*
D51*
X1384961Y3353858D3*
D49*
X1284961D3*
X1184961D3*
X1084961D3*
D42*
X1957795Y666457D3*
X512126D3*
Y3314488D3*
X1957795D3*
M02*
