G04 DipTrace 3.3.0.0*
G04 ESP32externalssr.gbl*
%MOIN*%
G04 #@! TF.FileFunction,Copper,L2,Bot*
G04 #@! TF.Part,Single*
G04 #@! TA.AperFunction,Conductor*
%ADD13C,0.012992*%
G04 #@! TA.AperFunction,CopperBalancing*
%ADD14C,0.025*%
G04 #@! TA.AperFunction,ComponentPad*
%ADD22R,0.090551X0.090551*%
%ADD23C,0.090551*%
%ADD24R,0.045276X0.041339*%
%ADD25O,0.045276X0.041339*%
%ADD26R,0.066929X0.066929*%
%ADD27C,0.066929*%
%ADD38R,0.059055X0.059055*%
%ADD39C,0.059055*%
G04 #@! TA.AperFunction,ViaPad*
%ADD40C,0.04*%
%FSLAX26Y26*%
G04*
G70*
G90*
G75*
G01*
G04 Bottom*
%LPD*%
X1968819Y2674882D2*
D13*
X2021776Y2621925D1*
Y1473961D1*
X1980315Y1432500D1*
X1618547Y2981516D2*
Y1573917D1*
X853071Y3131516D2*
Y2952280D1*
X777319D1*
X777315Y2952283D1*
X630236D1*
X1968819Y2773307D2*
X1958474D1*
X1875265Y2856516D1*
X1731937D1*
Y3008524D1*
X1705953Y3034508D1*
X1618547D1*
X630236Y2952283D2*
Y2887126D1*
X656220Y2861142D1*
X708622D1*
Y2309882D1*
X682638Y2283898D1*
X630236Y2231496D1*
Y2086142D1*
X2008307Y1248965D2*
X1889882Y1367390D1*
Y2077579D1*
X1968819Y2156516D1*
X1324453Y3168988D2*
Y3261469D1*
X1779055Y472756D2*
Y817720D1*
X630236Y2086142D2*
X539484Y1995390D1*
Y1743823D1*
X630236Y1653071D1*
X682638Y2283898D2*
X706606D1*
X746094Y2244409D1*
X1968819Y2156516D2*
X1705953Y2419382D1*
Y2830531D1*
X1731937Y2856516D1*
X1483508Y2431516D2*
X1479055Y2427063D1*
Y472756D1*
X1579055D2*
Y2531516D1*
X1384961Y3353858D2*
Y2481516D1*
X1679055Y472756D2*
Y2175988D1*
X1279055Y472756D2*
Y554728D1*
X1238976Y594807D1*
Y703154D1*
X1424453D2*
Y2731516D1*
X1084961Y3353858D2*
Y3221980D1*
X1238976Y703154D2*
Y810913D1*
X1424453Y2731516D2*
Y3221980D1*
X1184961Y3353858D2*
Y3132382D1*
X1049929Y2997350D1*
Y697843D1*
X1079055Y668717D1*
Y472756D1*
X1049929Y697843D2*
X711539D1*
Y554259D1*
X679055Y521774D1*
Y472756D1*
X711539Y697843D2*
X685555Y723827D1*
Y896386D1*
X1528075Y547760D2*
Y3119035D1*
X1554059Y3145020D1*
X1697524D1*
X879055Y472756D2*
Y547760D1*
X1379055Y472756D2*
Y536268D1*
X1328075Y587248D1*
Y626736D1*
X1278465D1*
Y2781516D1*
Y2817756D1*
X1284961Y2824252D1*
Y3353858D1*
X1331457Y2784508D2*
X1328465Y2781516D1*
X1278465D1*
X630236Y1930236D2*
X871807Y2171807D1*
Y2583976D1*
X911295Y2623465D1*
Y2881516D1*
X1115402Y2831516D2*
X1179055Y2767862D1*
Y472756D1*
X1968819Y1711543D2*
Y1856516D1*
X1317953Y1850709D2*
Y2731516D1*
X630236Y1497165D2*
Y1392913D1*
X1862154Y2713799D2*
Y2651654D1*
X1888138Y2625669D1*
X1968819D1*
D40*
X1980315Y1432500D3*
X1618547Y1573917D3*
Y2981516D3*
Y3034508D3*
X746094Y2244409D3*
X1324453Y3261469D3*
Y3168988D3*
X1779055Y817720D3*
X2008307Y1248965D3*
X853071Y3131516D3*
X1483508Y2431516D3*
X1579055Y2531516D3*
X1384961Y2481516D3*
X1679055Y2175988D3*
X1238976Y810913D3*
X1424453Y3221980D3*
X1084961D3*
X1238976Y703154D3*
X1424453D3*
Y2731516D3*
X685555Y896386D3*
X1697524Y3145020D3*
X1528075Y547760D3*
X879055D3*
X1278465Y626736D3*
X1331457Y2784508D3*
X1115402Y2831516D3*
X1968819Y1711543D3*
X1317953Y2731516D3*
Y1850709D3*
X630236Y1392913D3*
X911295Y2881516D3*
X1862154Y2713799D3*
X603562Y3348773D2*
D14*
X1026660D1*
X1443467D2*
X1866350D1*
X609483Y3323904D2*
X1035129D1*
X1443467D2*
X1860465D1*
X608657Y3299035D2*
X1049483D1*
X1120438D2*
X1149456D1*
X1443467D2*
X1861255D1*
X600978Y3274167D2*
X1049483D1*
X1120438D2*
X1149456D1*
X1320456D2*
X1349474D1*
X1420465D2*
X1868934D1*
X584149Y3249298D2*
X1044853D1*
X1125067D2*
X1149456D1*
X1320456D2*
X1349474D1*
X1464567D2*
X1885764D1*
X436593Y3224429D2*
X478422D1*
X545824D2*
X1036026D1*
X1133894D2*
X1149456D1*
X1320456D2*
X1349474D1*
X1473395D2*
X1924088D1*
X1991490D2*
X2032566D1*
X436593Y3199560D2*
X1041732D1*
X1128189D2*
X1149456D1*
X1320456D2*
X1349474D1*
X1467689D2*
X2032566D1*
X436593Y3174692D2*
X1149456D1*
X1320456D2*
X1349474D1*
X1459938D2*
X1537149D1*
X1735816D2*
X2032566D1*
X436593Y3149823D2*
X1149456D1*
X1320456D2*
X1349474D1*
X1459938D2*
X1509697D1*
X1746258D2*
X2032566D1*
X436593Y3124954D2*
X1128392D1*
X1320456D2*
X1349474D1*
X1459938D2*
X1493119D1*
X1741952D2*
X2032566D1*
X436593Y3100085D2*
X1103524D1*
X1320456D2*
X1349474D1*
X1459938D2*
X1492580D1*
X1563572D2*
X1683090D1*
X1711953D2*
X2032566D1*
X436593Y3075217D2*
X1078656D1*
X1320456D2*
X1349474D1*
X1459938D2*
X1492580D1*
X1563572D2*
X2032566D1*
X436593Y3050348D2*
X1053789D1*
X1320456D2*
X1349474D1*
X1459938D2*
X1492580D1*
X1563572D2*
X2032566D1*
X436593Y3025479D2*
X1028921D1*
X1320456D2*
X1349474D1*
X1459938D2*
X1492580D1*
X1563572D2*
X1600915D1*
X1636165D2*
X2032566D1*
X436593Y3000610D2*
X1014603D1*
X1320456D2*
X1349474D1*
X1459938D2*
X1492580D1*
X1663437D2*
X2032566D1*
X436593Y2975741D2*
X1014424D1*
X1320456D2*
X1349474D1*
X1459938D2*
X1492580D1*
X1667169D2*
X2032566D1*
X436593Y2950873D2*
X1014424D1*
X1320456D2*
X1349474D1*
X1459938D2*
X1492580D1*
X1563572D2*
X1581071D1*
X1656009D2*
X2032566D1*
X436593Y2926004D2*
X895288D1*
X927309D2*
X1014424D1*
X1320456D2*
X1349474D1*
X1459938D2*
X1492580D1*
X1563572D2*
X1583045D1*
X1654036D2*
X2032566D1*
X436593Y2901135D2*
X866653D1*
X955945D2*
X1014424D1*
X1320456D2*
X1349474D1*
X1459938D2*
X1492580D1*
X1563572D2*
X1583045D1*
X1654036D2*
X2032566D1*
X436593Y2876266D2*
X862598D1*
X959999D2*
X1014424D1*
X1320456D2*
X1349474D1*
X1459938D2*
X1492580D1*
X1563572D2*
X1583045D1*
X1654036D2*
X2032566D1*
X436593Y2851398D2*
X555967D1*
X704504D2*
X873363D1*
X949198D2*
X1014424D1*
X1320456D2*
X1349474D1*
X1459938D2*
X1492580D1*
X1563572D2*
X1583045D1*
X1654036D2*
X2032566D1*
X436593Y2826529D2*
X555967D1*
X704504D2*
X875803D1*
X946794D2*
X1014424D1*
X1459938D2*
X1492580D1*
X1563572D2*
X1583045D1*
X1654036D2*
X2032566D1*
X436593Y2801660D2*
X555967D1*
X704504D2*
X875803D1*
X946794D2*
X1014424D1*
X1459938D2*
X1492580D1*
X1563572D2*
X1583045D1*
X1654036D2*
X2032566D1*
X436593Y2776791D2*
X555967D1*
X704504D2*
X875803D1*
X946794D2*
X1014424D1*
X1459938D2*
X1492580D1*
X1563572D2*
X1583045D1*
X1654036D2*
X2032566D1*
X436593Y2751923D2*
X555967D1*
X704504D2*
X875803D1*
X946794D2*
X1014424D1*
X1468730D2*
X1492580D1*
X1563572D2*
X1583045D1*
X1654036D2*
X1833050D1*
X1891266D2*
X1926277D1*
X2011370D2*
X2032566D1*
X436593Y2727054D2*
X555967D1*
X704504D2*
X875803D1*
X946794D2*
X1014424D1*
X1473215D2*
X1492580D1*
X1563572D2*
X1583045D1*
X1654036D2*
X1815108D1*
X436593Y2702185D2*
X875803D1*
X946794D2*
X1014424D1*
X1463024D2*
X1492580D1*
X1563572D2*
X1583045D1*
X1654036D2*
X1814641D1*
X1909674D2*
X1922581D1*
X2015066D2*
X2032566D1*
X436593Y2677316D2*
X875803D1*
X946794D2*
X1014424D1*
X1459938D2*
X1492580D1*
X1563572D2*
X1583045D1*
X1654036D2*
X1826662D1*
X1897653D2*
X1917234D1*
X436593Y2652448D2*
X875803D1*
X946794D2*
X1014424D1*
X1459938D2*
X1492580D1*
X1563572D2*
X1583045D1*
X1654036D2*
X1826662D1*
X436593Y2627579D2*
X866258D1*
X946794D2*
X1014424D1*
X1459938D2*
X1492580D1*
X1563572D2*
X1583045D1*
X1654036D2*
X1837069D1*
X436593Y2602710D2*
X842144D1*
X939438D2*
X1014424D1*
X1459938D2*
X1492580D1*
X1563572D2*
X1583045D1*
X1654036D2*
X1861936D1*
X436593Y2577841D2*
X586361D1*
X674146D2*
X836330D1*
X914821D2*
X1014424D1*
X1459938D2*
X1492580D1*
X1654036D2*
X1917198D1*
X436593Y2552972D2*
X564400D1*
X696071D2*
X836330D1*
X907286D2*
X1014424D1*
X1459938D2*
X1492580D1*
X1654036D2*
X1923442D1*
X436593Y2528104D2*
X556506D1*
X703966D2*
X836330D1*
X907286D2*
X1014424D1*
X1459938D2*
X1492580D1*
X1654036D2*
X1917198D1*
X436593Y2503235D2*
X557762D1*
X702710D2*
X836330D1*
X907286D2*
X1014424D1*
X1459938D2*
X1492580D1*
X1654036D2*
X1923765D1*
X436593Y2478366D2*
X568742D1*
X691729D2*
X836330D1*
X907286D2*
X1014424D1*
X1459938D2*
X1492580D1*
X1654036D2*
X1986275D1*
X436593Y2453497D2*
X598885D1*
X661587D2*
X836330D1*
X907286D2*
X1014424D1*
X1654036D2*
X1986275D1*
X436593Y2428629D2*
X555967D1*
X704504D2*
X836330D1*
X907286D2*
X1014424D1*
X1654036D2*
X1986275D1*
X436593Y2403760D2*
X555967D1*
X704504D2*
X836330D1*
X907286D2*
X1014424D1*
X1654036D2*
X1986275D1*
X436593Y2378891D2*
X555967D1*
X704504D2*
X836330D1*
X907286D2*
X1014424D1*
X1654036D2*
X1986275D1*
X436593Y2354022D2*
X555967D1*
X704504D2*
X836330D1*
X907286D2*
X1014424D1*
X1654036D2*
X1986275D1*
X436593Y2329154D2*
X555967D1*
X704504D2*
X836330D1*
X907286D2*
X1014424D1*
X1654036D2*
X1986275D1*
X436593Y2304285D2*
X555967D1*
X704504D2*
X836330D1*
X907286D2*
X1014424D1*
X1654036D2*
X1986275D1*
X436593Y2279416D2*
X836330D1*
X907286D2*
X1014424D1*
X1654036D2*
X1986275D1*
X436593Y2254547D2*
X836330D1*
X907286D2*
X1014424D1*
X1654036D2*
X1986275D1*
X436593Y2229678D2*
X836330D1*
X907286D2*
X1014424D1*
X1654036D2*
X1986275D1*
X436593Y2204810D2*
X836330D1*
X907286D2*
X1014424D1*
X1718053D2*
X1986275D1*
X436593Y2179941D2*
X830804D1*
X907286D2*
X1014424D1*
X1727885D2*
X1986275D1*
X436593Y2155072D2*
X805937D1*
X902728D2*
X1014424D1*
X1723077D2*
X1986275D1*
X436593Y2130203D2*
X781069D1*
X879368D2*
X1014424D1*
X1714536D2*
X1986275D1*
X436593Y2105335D2*
X756165D1*
X854500D2*
X1014424D1*
X1714536D2*
X1931516D1*
X436593Y2080466D2*
X731297D1*
X829632D2*
X1014424D1*
X1714536D2*
X1911349D1*
X436593Y2055597D2*
X706430D1*
X804764D2*
X1014424D1*
X1714536D2*
X1906361D1*
X436593Y2030728D2*
X681562D1*
X779897D2*
X1014424D1*
X1714536D2*
X1912174D1*
X436593Y2005860D2*
X656694D1*
X755029D2*
X1014424D1*
X1714536D2*
X1932269D1*
X436593Y1980991D2*
X555967D1*
X730125D2*
X1014424D1*
X1714536D2*
X1911600D1*
X436593Y1956122D2*
X555967D1*
X705258D2*
X1014424D1*
X1714536D2*
X1906361D1*
X436593Y1931253D2*
X555967D1*
X704504D2*
X1014424D1*
X1714536D2*
X1911959D1*
X436593Y1906385D2*
X555967D1*
X704504D2*
X1014424D1*
X1714536D2*
X1933023D1*
X436593Y1881516D2*
X555967D1*
X704504D2*
X1014424D1*
X1714536D2*
X1911815D1*
X436593Y1856647D2*
X1014424D1*
X1714536D2*
X1906361D1*
X436593Y1831778D2*
X1014424D1*
X1714536D2*
X1911708D1*
X436593Y1806909D2*
X1014424D1*
X1714536D2*
X1932628D1*
X436593Y1782041D2*
X1014424D1*
X1714536D2*
X1933346D1*
X436593Y1757172D2*
X1014424D1*
X1714536D2*
X1933346D1*
X436593Y1732303D2*
X1014424D1*
X1714536D2*
X1924734D1*
X436593Y1707434D2*
X1014424D1*
X1714536D2*
X1919997D1*
X436593Y1682566D2*
X1014424D1*
X1714536D2*
X1929973D1*
X436593Y1657697D2*
X1014424D1*
X1714536D2*
X1986275D1*
X436593Y1632828D2*
X1014424D1*
X1714536D2*
X1986275D1*
X436593Y1607959D2*
X1014424D1*
X1714536D2*
X1986275D1*
X436593Y1583091D2*
X1014424D1*
X1714536D2*
X1986275D1*
X436593Y1558222D2*
X555967D1*
X704504D2*
X1014424D1*
X1714536D2*
X1986275D1*
X436593Y1533353D2*
X555967D1*
X704504D2*
X1014424D1*
X1714536D2*
X1986275D1*
X436593Y1508484D2*
X555967D1*
X704504D2*
X1014424D1*
X1714536D2*
X1986275D1*
X436593Y1483615D2*
X555967D1*
X704504D2*
X1014424D1*
X1714536D2*
X1982292D1*
X436593Y1458747D2*
X555967D1*
X704504D2*
X1014424D1*
X1714536D2*
X1939446D1*
X436593Y1433878D2*
X555967D1*
X704504D2*
X1014424D1*
X1714536D2*
X1931336D1*
X436593Y1409009D2*
X584136D1*
X676371D2*
X1014424D1*
X1714536D2*
X1937688D1*
X436593Y1384140D2*
X582091D1*
X678380D2*
X1014424D1*
X1714536D2*
X2032566D1*
X436593Y1359272D2*
X595655D1*
X664816D2*
X1014424D1*
X1714536D2*
X2032566D1*
X436593Y1334403D2*
X1014424D1*
X1714536D2*
X2032566D1*
X436593Y1309534D2*
X1014424D1*
X1714536D2*
X2032566D1*
X436593Y1284665D2*
X1014424D1*
X1714536D2*
X2032566D1*
X436593Y1259797D2*
X1014424D1*
X1714536D2*
X2032566D1*
X436593Y1234928D2*
X1014424D1*
X1714536D2*
X2032566D1*
X436593Y1210059D2*
X1014424D1*
X1714536D2*
X2032566D1*
X436593Y1185190D2*
X1014424D1*
X1714536D2*
X2032566D1*
X436593Y1160322D2*
X1014424D1*
X1714536D2*
X2032566D1*
X436593Y1135453D2*
X1014424D1*
X1714536D2*
X2032566D1*
X436593Y1110584D2*
X1014424D1*
X1714536D2*
X2032566D1*
X436593Y1085715D2*
X1014424D1*
X1714536D2*
X2032566D1*
X436593Y1060846D2*
X1014424D1*
X1714536D2*
X2032566D1*
X436593Y1035978D2*
X1014424D1*
X1714536D2*
X2032566D1*
X436593Y1011109D2*
X1014424D1*
X1714536D2*
X2032566D1*
X436593Y986240D2*
X1014424D1*
X1714536D2*
X2032566D1*
X436593Y961371D2*
X1014424D1*
X1714536D2*
X2032566D1*
X436593Y936503D2*
X659565D1*
X711537D2*
X1014424D1*
X1714536D2*
X2032566D1*
X436593Y911634D2*
X639147D1*
X731991D2*
X1014424D1*
X1714536D2*
X2032566D1*
X436593Y886765D2*
X637568D1*
X733534D2*
X1014424D1*
X1714536D2*
X2032566D1*
X436593Y861896D2*
X650056D1*
X721047D2*
X1014424D1*
X1714536D2*
X2032566D1*
X436593Y837028D2*
X650056D1*
X721047D2*
X1014424D1*
X1714536D2*
X2032566D1*
X436593Y812159D2*
X650056D1*
X721047D2*
X1014424D1*
X1714536D2*
X2032566D1*
X436593Y787290D2*
X650056D1*
X721047D2*
X1014424D1*
X1714536D2*
X2032566D1*
X436593Y762421D2*
X650056D1*
X721047D2*
X1014424D1*
X1714536D2*
X2032566D1*
X578084Y737552D2*
X650056D1*
X721047D2*
X1014424D1*
X1714536D2*
X1891828D1*
X597964Y712684D2*
X651993D1*
X1714536D2*
X1871948D1*
X607509Y687815D2*
X672412D1*
X1714536D2*
X1862403D1*
X609877Y662946D2*
X676036D1*
X1714536D2*
X1860035D1*
X605607Y638077D2*
X676036D1*
X1714536D2*
X1864305D1*
X593658Y613209D2*
X676036D1*
X1714536D2*
X1876254D1*
X436593Y588340D2*
X455025D1*
X569221D2*
X676036D1*
X1714536D2*
X1900691D1*
X2014887D2*
X2032566D1*
X436593Y563471D2*
X671586D1*
X1714536D2*
X2032566D1*
X436593Y538602D2*
X648190D1*
X1714536D2*
X2032566D1*
X436593Y513734D2*
X538348D1*
X619746D2*
X638357D1*
X1719739D2*
X1820526D1*
X1937592D2*
X2032566D1*
X436593Y488865D2*
X522918D1*
X1735206D2*
X1820526D1*
X1937592D2*
X2032566D1*
X436593Y463996D2*
X521231D1*
X1736892D2*
X1820526D1*
X1937592D2*
X2032566D1*
X436593Y439127D2*
X531746D1*
X1726342D2*
X1820526D1*
X1937592D2*
X2032566D1*
X567655Y2868146D2*
X702004D1*
Y2724610D1*
X558469D1*
Y2868146D1*
X567655D1*
Y2435075D2*
X702004D1*
Y2291539D1*
X558469D1*
Y2435075D1*
X567655D1*
X701783Y2513582D2*
X700021Y2502459D1*
X696541Y2491748D1*
X691428Y2481714D1*
X684809Y2472603D1*
X676846Y2464640D1*
X667735Y2458021D1*
X657701Y2452908D1*
X646990Y2449428D1*
X635867Y2447666D1*
X624605D1*
X613482Y2449428D1*
X602772Y2452908D1*
X592738Y2458021D1*
X583627Y2464640D1*
X575664Y2472603D1*
X569044Y2481714D1*
X563931Y2491748D1*
X560451Y2502459D1*
X558690Y2513582D1*
Y2524843D1*
X560451Y2535966D1*
X563931Y2546677D1*
X569044Y2556711D1*
X575664Y2565822D1*
X583627Y2573785D1*
X592738Y2580405D1*
X602772Y2585517D1*
X613482Y2588997D1*
X624605Y2590759D1*
X635867D1*
X646990Y2588997D1*
X657701Y2585517D1*
X667735Y2580405D1*
X676846Y2573785D1*
X684809Y2565822D1*
X691428Y2556711D1*
X696541Y2546677D1*
X700021Y2535966D1*
X701783Y2524843D1*
Y2513582D1*
X567655Y2002004D2*
X655320D1*
X838803Y2185455D1*
X838920Y2586565D1*
X839730Y2591677D1*
X841330Y2596600D1*
X843680Y2601213D1*
X846723Y2605401D1*
X878295Y2637117D1*
X878307Y2848781D1*
X873682Y2854188D1*
X869870Y2860409D1*
X867079Y2867149D1*
X865376Y2874243D1*
X864803Y2881516D1*
X865376Y2888789D1*
X867079Y2895883D1*
X869870Y2902623D1*
X873682Y2908843D1*
X878420Y2914391D1*
X883968Y2919129D1*
X890188Y2922941D1*
X896928Y2925732D1*
X904022Y2927435D1*
X911295Y2928008D1*
X918568Y2927435D1*
X925662Y2925732D1*
X932402Y2922941D1*
X938623Y2919129D1*
X944170Y2914391D1*
X948908Y2908843D1*
X952720Y2902623D1*
X955512Y2895883D1*
X957215Y2888789D1*
X957787Y2881516D1*
X957215Y2874243D1*
X955512Y2867149D1*
X952720Y2860409D1*
X948908Y2854188D1*
X944277Y2848756D1*
X944182Y2620876D1*
X943372Y2615764D1*
X941772Y2610840D1*
X939422Y2606228D1*
X936380Y2602040D1*
X904807Y2570324D1*
X904694Y2169219D1*
X903884Y2164106D1*
X902284Y2159183D1*
X899934Y2154571D1*
X896892Y2150383D1*
X849663Y2103011D1*
X702012Y1955360D1*
X702004Y1858468D1*
X558469D1*
Y2002004D1*
X567655D1*
X1926617Y2699491D2*
X1923279Y2706047D1*
X1920992Y2713085D1*
X1919834Y2720394D1*
Y2727795D1*
X1920992Y2735104D1*
X1923279Y2742142D1*
X1926639Y2748736D1*
X1930989Y2754723D1*
X1936222Y2759956D1*
X1942209Y2764306D1*
X1948803Y2767666D1*
X1955841Y2769953D1*
X1963150Y2771111D1*
X1974488D1*
X1981797Y2769953D1*
X1988835Y2767666D1*
X1995429Y2764306D1*
X2001416Y2759956D1*
X2006649Y2754723D1*
X2010999Y2748736D1*
X2014359Y2742142D1*
X2016646Y2735104D1*
X2017803Y2727795D1*
Y2720394D1*
X2016646Y2713085D1*
X2014359Y2706047D1*
X2011020Y2699491D1*
X2014359Y2692930D1*
X2016646Y2685892D1*
X2017803Y2678582D1*
X2017855Y2672497D1*
X2035052Y2655301D1*
X2034901Y3258467D1*
X2030268Y3252590D1*
X2025188Y3247095D1*
X2019693Y3242015D1*
X2013816Y3237382D1*
X2007594Y3233224D1*
X2001064Y3229568D1*
X1994268Y3226435D1*
X1987247Y3223845D1*
X1980045Y3221813D1*
X1972705Y3220353D1*
X1965273Y3219474D1*
X1957795Y3219180D1*
X1950317Y3219474D1*
X1942886Y3220353D1*
X1935546Y3221813D1*
X1928343Y3223845D1*
X1921322Y3226435D1*
X1914526Y3229568D1*
X1907997Y3233224D1*
X1901774Y3237382D1*
X1895897Y3242015D1*
X1890402Y3247095D1*
X1885322Y3252590D1*
X1880689Y3258467D1*
X1876532Y3264690D1*
X1872875Y3271219D1*
X1869742Y3278015D1*
X1867152Y3285036D1*
X1865120Y3292239D1*
X1863660Y3299579D1*
X1862781Y3307010D1*
X1862487Y3314488D1*
X1862781Y3321966D1*
X1863660Y3329398D1*
X1865120Y3336737D1*
X1867152Y3343940D1*
X1869742Y3350961D1*
X1872875Y3357757D1*
X1876532Y3364287D1*
X1883169Y3373654D1*
X1441009Y3373642D1*
X1440980Y3297838D1*
X1417979D1*
X1417949Y3267987D1*
X1424453Y3268472D1*
X1431726Y3267900D1*
X1438820Y3266197D1*
X1445560Y3263405D1*
X1451780Y3259593D1*
X1457328Y3254855D1*
X1462066Y3249308D1*
X1465878Y3243087D1*
X1468669Y3236347D1*
X1470372Y3229253D1*
X1470945Y3221980D1*
X1470372Y3214707D1*
X1468669Y3207613D1*
X1465878Y3200873D1*
X1462066Y3194653D1*
X1457434Y3189221D1*
X1457441Y2764278D1*
X1462066Y2758843D1*
X1465878Y2752623D1*
X1468669Y2745883D1*
X1470372Y2738789D1*
X1470945Y2731516D1*
X1470372Y2724243D1*
X1468669Y2717149D1*
X1465878Y2710409D1*
X1462066Y2704188D1*
X1457434Y2698756D1*
X1457441Y2470028D1*
X1462401Y2472941D1*
X1469141Y2475732D1*
X1476235Y2477435D1*
X1483508Y2478008D1*
X1490781Y2477435D1*
X1495089Y2476518D1*
X1495188Y3121624D1*
X1495998Y3126736D1*
X1497598Y3131660D1*
X1499948Y3136272D1*
X1502990Y3140460D1*
X1530733Y3168346D1*
X1534669Y3171708D1*
X1539083Y3174413D1*
X1543865Y3176393D1*
X1548899Y3177602D1*
X1554059Y3178008D1*
X1664762D1*
X1670196Y3182633D1*
X1676417Y3186444D1*
X1683157Y3189236D1*
X1690251Y3190939D1*
X1697524Y3191512D1*
X1704797Y3190939D1*
X1711890Y3189236D1*
X1718631Y3186444D1*
X1724851Y3182633D1*
X1730399Y3177895D1*
X1735137Y3172347D1*
X1738948Y3166127D1*
X1741740Y3159387D1*
X1743443Y3152293D1*
X1744016Y3145020D1*
X1743443Y3137747D1*
X1741740Y3130653D1*
X1738948Y3123913D1*
X1735137Y3117692D1*
X1730399Y3112145D1*
X1724851Y3107407D1*
X1718631Y3103595D1*
X1711890Y3100803D1*
X1704797Y3099100D1*
X1697524Y3098528D1*
X1690251Y3099100D1*
X1683157Y3100803D1*
X1676417Y3103595D1*
X1670196Y3107407D1*
X1664764Y3112038D1*
X1567731Y3112031D1*
X1561070Y3105378D1*
X1561263Y2574469D1*
X1568202Y2576723D1*
X1575407Y2577865D1*
X1582703D1*
X1585549Y2577528D1*
X1585559Y2948748D1*
X1580934Y2954188D1*
X1577122Y2960409D1*
X1574331Y2967149D1*
X1572628Y2974243D1*
X1572055Y2981516D1*
X1572628Y2988789D1*
X1574331Y2995883D1*
X1577122Y3002623D1*
X1580934Y3008843D1*
X1585672Y3014391D1*
X1591220Y3019129D1*
X1597440Y3022941D1*
X1604180Y3025732D1*
X1611274Y3027435D1*
X1618547Y3028008D1*
X1625820Y3027435D1*
X1632914Y3025732D1*
X1639654Y3022941D1*
X1645875Y3019129D1*
X1651422Y3014391D1*
X1656160Y3008843D1*
X1659972Y3002623D1*
X1662764Y2995883D1*
X1664467Y2988789D1*
X1665039Y2981516D1*
X1664467Y2974243D1*
X1662764Y2967149D1*
X1659972Y2960409D1*
X1656160Y2954188D1*
X1651529Y2948756D1*
X1651728Y2213601D1*
X1657948Y2217413D1*
X1664688Y2220205D1*
X1671782Y2221908D1*
X1679055Y2222480D1*
X1686328Y2221908D1*
X1693422Y2220205D1*
X1700162Y2217413D1*
X1706383Y2213601D1*
X1711930Y2208863D1*
X1716668Y2203316D1*
X1720480Y2197095D1*
X1723272Y2190355D1*
X1724975Y2183261D1*
X1725547Y2175988D1*
X1724975Y2168715D1*
X1723272Y2161621D1*
X1720480Y2154881D1*
X1716668Y2148661D1*
X1712036Y2143228D1*
X1712043Y518031D1*
X1718667Y512368D1*
X1724376Y505683D1*
X1728969Y498188D1*
X1732333Y490067D1*
X1734385Y481519D1*
X1735075Y472756D1*
X1734385Y463992D1*
X1732333Y455445D1*
X1728969Y447324D1*
X1724376Y439828D1*
X1719518Y434065D1*
X1823032Y434075D1*
X1823036Y528775D1*
X1935075D1*
Y434077D1*
X2035035Y434075D1*
X2034901Y610436D1*
X2030268Y604559D1*
X2025188Y599063D1*
X2019693Y593984D1*
X2013816Y589351D1*
X2007594Y585193D1*
X2001064Y581536D1*
X1994268Y578403D1*
X1987247Y575813D1*
X1980045Y573782D1*
X1972705Y572322D1*
X1965273Y571442D1*
X1957795Y571148D1*
X1950317Y571442D1*
X1942886Y572322D1*
X1935546Y573782D1*
X1928343Y575813D1*
X1921322Y578403D1*
X1914526Y581536D1*
X1907997Y585193D1*
X1901774Y589351D1*
X1895897Y593984D1*
X1890402Y599063D1*
X1885322Y604559D1*
X1880689Y610436D1*
X1876532Y616658D1*
X1872875Y623188D1*
X1869742Y629984D1*
X1867152Y637005D1*
X1865120Y644207D1*
X1863660Y651547D1*
X1862781Y658979D1*
X1862487Y666457D1*
X1862781Y673935D1*
X1863660Y681366D1*
X1865120Y688706D1*
X1867152Y695909D1*
X1869742Y702930D1*
X1872875Y709726D1*
X1876532Y716255D1*
X1880689Y722478D1*
X1885322Y728355D1*
X1890402Y733850D1*
X1895897Y738930D1*
X1901774Y743563D1*
X1907997Y747720D1*
X1914526Y751377D1*
X1921322Y754510D1*
X1928343Y757100D1*
X1935546Y759132D1*
X1942886Y760592D1*
X1950317Y761471D1*
X1957795Y761765D1*
X1965273Y761471D1*
X1972705Y760592D1*
X1980045Y759132D1*
X1987247Y757100D1*
X1994268Y754510D1*
X2001064Y751377D1*
X2007594Y747720D1*
X2013816Y743563D1*
X2019693Y738930D1*
X2025188Y733850D1*
X2030268Y728355D1*
X2035048Y722259D1*
X2035059Y1440578D1*
X2026807Y1432340D1*
X2026235Y1425227D1*
X2024532Y1418133D1*
X2021740Y1411393D1*
X2017928Y1405173D1*
X2013190Y1399625D1*
X2007642Y1394887D1*
X2001422Y1391075D1*
X1994682Y1388283D1*
X1987588Y1386580D1*
X1980315Y1386008D1*
X1973042Y1386580D1*
X1965948Y1388283D1*
X1959208Y1391075D1*
X1952988Y1394887D1*
X1947440Y1399625D1*
X1942702Y1405173D1*
X1938890Y1411393D1*
X1936098Y1418133D1*
X1934395Y1425227D1*
X1933823Y1432500D1*
X1934395Y1439773D1*
X1936098Y1446867D1*
X1938890Y1453607D1*
X1942702Y1459827D1*
X1947440Y1465375D1*
X1952988Y1470113D1*
X1959208Y1473925D1*
X1965948Y1476717D1*
X1973042Y1478420D1*
X1980158Y1478986D1*
X1988782Y1487620D1*
X1988787Y1669565D1*
X1983186Y1667327D1*
X1976092Y1665624D1*
X1968819Y1665051D1*
X1961546Y1665624D1*
X1954452Y1667327D1*
X1947712Y1670119D1*
X1941492Y1673930D1*
X1935944Y1678668D1*
X1931206Y1684216D1*
X1927394Y1690436D1*
X1924602Y1697176D1*
X1922899Y1704270D1*
X1922327Y1711543D1*
X1922899Y1718816D1*
X1924602Y1725910D1*
X1927394Y1732650D1*
X1931206Y1738871D1*
X1935838Y1744303D1*
X1935831Y1806457D1*
X1929880Y1810924D1*
X1923227Y1817577D1*
X1917697Y1825188D1*
X1913426Y1833571D1*
X1910519Y1842519D1*
X1909047Y1851812D1*
Y1861220D1*
X1910519Y1870512D1*
X1913426Y1879460D1*
X1917697Y1887843D1*
X1923227Y1895455D1*
X1929880Y1902107D1*
X1935764Y1906483D1*
X1929880Y1910924D1*
X1923227Y1917577D1*
X1917697Y1925188D1*
X1913426Y1933571D1*
X1910519Y1942519D1*
X1909047Y1951812D1*
Y1961220D1*
X1910519Y1970512D1*
X1913426Y1979460D1*
X1917697Y1987843D1*
X1923227Y1995455D1*
X1929880Y2002107D1*
X1935764Y2006483D1*
X1929880Y2010924D1*
X1923227Y2017577D1*
X1917697Y2025188D1*
X1913426Y2033571D1*
X1910519Y2042519D1*
X1909047Y2051812D1*
Y2061220D1*
X1910519Y2070512D1*
X1913426Y2079460D1*
X1917697Y2087843D1*
X1923227Y2095455D1*
X1929880Y2102107D1*
X1937492Y2107637D1*
X1945874Y2111909D1*
X1954822Y2114816D1*
X1964115Y2116288D1*
X1973523D1*
X1982816Y2114816D1*
X1988779Y2113010D1*
X1988787Y2483634D1*
X1981797Y2481386D1*
X1974488Y2480228D1*
X1966850Y2480083D1*
X1959473Y2480663D1*
X1952277Y2482391D1*
X1945440Y2485223D1*
X1939130Y2489090D1*
X1933502Y2493896D1*
X1928696Y2499523D1*
X1924829Y2505833D1*
X1921997Y2512670D1*
X1920270Y2519866D1*
X1919689Y2527244D1*
X1920270Y2534622D1*
X1921997Y2541818D1*
X1924829Y2548655D1*
X1926617Y2551848D1*
X1923279Y2558409D1*
X1920992Y2565447D1*
X1919834Y2572756D1*
Y2580157D1*
X1920992Y2587466D1*
X1922603Y2592672D1*
X1885550Y2592783D1*
X1880437Y2593593D1*
X1875514Y2595192D1*
X1870902Y2597542D1*
X1866714Y2600585D1*
X1838827Y2628327D1*
X1835465Y2632263D1*
X1832761Y2636677D1*
X1830780Y2641460D1*
X1829571Y2646493D1*
X1829165Y2651654D1*
Y2681043D1*
X1824541Y2686472D1*
X1820729Y2692692D1*
X1817937Y2699432D1*
X1816234Y2706526D1*
X1815661Y2713799D1*
X1816234Y2721072D1*
X1817937Y2728166D1*
X1820729Y2734906D1*
X1824541Y2741127D1*
X1829279Y2746674D1*
X1834826Y2751412D1*
X1841047Y2755224D1*
X1847787Y2758016D1*
X1854881Y2759719D1*
X1862154Y2760291D1*
X1869427Y2759719D1*
X1876520Y2758016D1*
X1883261Y2755224D1*
X1889481Y2751412D1*
X1895028Y2746674D1*
X1899766Y2741127D1*
X1903578Y2734906D1*
X1906370Y2728166D1*
X1908073Y2721072D1*
X1908646Y2713799D1*
X1908073Y2706526D1*
X1906370Y2699432D1*
X1903578Y2692692D1*
X1899766Y2686472D1*
X1895135Y2681040D1*
X1895142Y2665320D1*
X1901795Y2658664D1*
X1922551Y2658657D1*
X1920992Y2663872D1*
X1919834Y2671182D1*
Y2678582D1*
X1920992Y2685892D1*
X1923279Y2692930D1*
X1926617Y2699486D1*
X567655Y1568933D2*
X702004D1*
Y1425397D1*
X663500D1*
X667849Y1420241D1*
X671661Y1414020D1*
X674453Y1407280D1*
X676156Y1400186D1*
X676728Y1392913D1*
X676156Y1385640D1*
X674453Y1378547D1*
X671661Y1371806D1*
X667849Y1365586D1*
X663111Y1360038D1*
X657564Y1355300D1*
X651343Y1351489D1*
X644603Y1348697D1*
X637509Y1346994D1*
X630236Y1346421D1*
X622963Y1346994D1*
X615869Y1348697D1*
X609129Y1351489D1*
X602909Y1355300D1*
X597361Y1360038D1*
X592623Y1365586D1*
X588811Y1371806D1*
X586020Y1378547D1*
X584316Y1385640D1*
X583744Y1392913D1*
X584316Y1400186D1*
X586020Y1407280D1*
X588811Y1414020D1*
X592623Y1420241D1*
X597003Y1425401D1*
X558469Y1425397D1*
Y1568933D1*
X567655D1*
X629062Y498017D2*
X633734Y505683D1*
X639443Y512368D1*
X646060Y518024D1*
X646169Y524363D1*
X646978Y529475D1*
X648578Y534398D1*
X650928Y539011D1*
X653971Y543198D1*
X678540Y567912D1*
X678551Y684195D1*
X660471Y702403D1*
X657428Y706590D1*
X655078Y711203D1*
X653478Y716126D1*
X652668Y721239D1*
X652567Y788131D1*
Y863596D1*
X647942Y869058D1*
X644130Y875279D1*
X641338Y882019D1*
X639635Y889113D1*
X639063Y896386D1*
X639635Y903659D1*
X641338Y910753D1*
X644130Y917493D1*
X647942Y923713D1*
X652680Y929261D1*
X658228Y933999D1*
X664448Y937811D1*
X671188Y940602D1*
X678282Y942306D1*
X685555Y942878D1*
X692828Y942306D1*
X699922Y940602D1*
X706662Y937811D1*
X712883Y933999D1*
X718430Y929261D1*
X723168Y923713D1*
X726980Y917493D1*
X729772Y910753D1*
X731475Y903659D1*
X732047Y896386D1*
X731475Y889113D1*
X729772Y882019D1*
X726980Y875279D1*
X723168Y869058D1*
X718536Y863626D1*
X718543Y737527D1*
X725197Y730838D1*
X1016950Y730831D1*
X1017043Y2999939D1*
X1017852Y3005051D1*
X1019452Y3009974D1*
X1021802Y3014587D1*
X1024845Y3018775D1*
X1072073Y3066147D1*
X1151976Y3146049D1*
X1151972Y3308609D1*
X1145349Y3314246D1*
X1139640Y3320931D1*
X1134968Y3328598D1*
X1130282Y3320931D1*
X1124573Y3314246D1*
X1117956Y3308591D1*
X1117949Y3254710D1*
X1122574Y3249308D1*
X1126385Y3243087D1*
X1129177Y3236347D1*
X1130880Y3229253D1*
X1131453Y3221980D1*
X1130880Y3214707D1*
X1129177Y3207613D1*
X1126385Y3200873D1*
X1122574Y3194653D1*
X1117836Y3189105D1*
X1112288Y3184367D1*
X1106068Y3180556D1*
X1099327Y3177764D1*
X1092234Y3176061D1*
X1084961Y3175488D1*
X1077688Y3176061D1*
X1070594Y3177764D1*
X1063854Y3180556D1*
X1057633Y3184367D1*
X1052086Y3189105D1*
X1047348Y3194653D1*
X1043536Y3200873D1*
X1040744Y3207613D1*
X1039041Y3214707D1*
X1038469Y3221980D1*
X1039041Y3229253D1*
X1040744Y3236347D1*
X1043536Y3243087D1*
X1047348Y3249308D1*
X1051979Y3254740D1*
X1051972Y3308569D1*
X1045349Y3314246D1*
X1039640Y3320931D1*
X1035047Y3328426D1*
X1031683Y3336547D1*
X1029631Y3345095D1*
X1028941Y3353858D1*
X1029631Y3362622D1*
X1031683Y3371169D1*
X1032593Y3373636D1*
X586821Y3373642D1*
X593390Y3364287D1*
X597046Y3357757D1*
X600179Y3350961D1*
X602770Y3343940D1*
X604801Y3336737D1*
X606261Y3329398D1*
X607141Y3321966D1*
X607434Y3314488D1*
X607141Y3307010D1*
X606261Y3299579D1*
X604801Y3292239D1*
X602770Y3285036D1*
X600179Y3278015D1*
X597046Y3271219D1*
X593390Y3264690D1*
X589232Y3258467D1*
X584599Y3252590D1*
X579519Y3247095D1*
X574024Y3242015D1*
X568147Y3237382D1*
X561924Y3233224D1*
X555395Y3229568D1*
X548599Y3226435D1*
X541578Y3223845D1*
X534375Y3221813D1*
X527036Y3220353D1*
X519604Y3219474D1*
X512126Y3219180D1*
X504648Y3219474D1*
X497216Y3220353D1*
X489877Y3221813D1*
X482674Y3223845D1*
X475653Y3226435D1*
X468857Y3229568D1*
X462327Y3233224D1*
X456105Y3237382D1*
X450228Y3242015D1*
X444733Y3247095D1*
X439653Y3252590D1*
X434062Y3259901D1*
X434075Y721131D1*
X439653Y728355D1*
X444733Y733850D1*
X450228Y738930D1*
X456105Y743563D1*
X462327Y747720D1*
X468857Y751377D1*
X475653Y754510D1*
X482674Y757100D1*
X489877Y759132D1*
X497216Y760592D1*
X504648Y761471D1*
X512126Y761765D1*
X519604Y761471D1*
X527036Y760592D1*
X534375Y759132D1*
X541578Y757100D1*
X548599Y754510D1*
X555395Y751377D1*
X561924Y747720D1*
X568147Y743563D1*
X574024Y738930D1*
X579519Y733850D1*
X584599Y728355D1*
X589232Y722478D1*
X593390Y716255D1*
X597046Y709726D1*
X600179Y702930D1*
X602770Y695909D1*
X604801Y688706D1*
X606261Y681366D1*
X607141Y673935D1*
X607434Y666457D1*
X607141Y658979D1*
X606261Y651547D1*
X604801Y644207D1*
X602770Y637005D1*
X600179Y629984D1*
X597046Y623188D1*
X593390Y616658D1*
X589232Y610436D1*
X584599Y604559D1*
X579519Y599063D1*
X574024Y593984D1*
X568147Y589351D1*
X561924Y585193D1*
X555395Y581536D1*
X548599Y578403D1*
X541578Y575813D1*
X534375Y573782D1*
X527036Y572322D1*
X519604Y571442D1*
X512126Y571148D1*
X504648Y571442D1*
X497216Y572322D1*
X489877Y573782D1*
X482674Y575813D1*
X475653Y578403D1*
X468857Y581536D1*
X462327Y585193D1*
X456105Y589351D1*
X450228Y593984D1*
X444733Y599063D1*
X439653Y604559D1*
X434062Y611870D1*
X434075Y434057D1*
X538521Y434075D1*
X533734Y439828D1*
X529141Y447324D1*
X525777Y455445D1*
X523725Y463992D1*
X523035Y472756D1*
X523725Y481519D1*
X525777Y490067D1*
X529141Y498188D1*
X533734Y505683D1*
X539443Y512368D1*
X546128Y518077D1*
X553623Y522670D1*
X561744Y526034D1*
X570292Y528086D1*
X579055Y528776D1*
X587819Y528086D1*
X596366Y526034D1*
X604488Y522670D1*
X611983Y518077D1*
X618667Y512368D1*
X624376Y505683D1*
X629048Y498017D1*
X1351952Y3297838D2*
X1328941D1*
Y3319190D1*
X1324573Y3314246D1*
X1317956Y3308591D1*
X1317949Y2828997D1*
X1324184Y2830428D1*
X1331457Y2831000D1*
X1338730Y2830428D1*
X1345824Y2828725D1*
X1351981Y2826201D1*
X1351972Y3297845D1*
D22*
X630236Y2796378D3*
D23*
Y2952283D3*
D22*
Y2363307D3*
D23*
Y2519213D3*
D22*
Y1930236D3*
D23*
Y2086142D3*
D24*
X1968819Y2773307D3*
D25*
Y2724094D3*
Y2674882D3*
Y2625669D3*
Y2576457D3*
Y2527244D3*
D26*
Y2156516D3*
D27*
Y2056516D3*
Y1956516D3*
Y1856516D3*
D22*
X630236Y1497165D3*
D23*
Y1653071D3*
D38*
X1879055Y472756D3*
D39*
X1779055D3*
X1679055D3*
X1579055D3*
X1479055D3*
X1379055D3*
X1279055D3*
X1179055D3*
X1079055D3*
X979055D3*
X879055D3*
X779055D3*
X679055D3*
X579055D3*
D38*
X1384961Y3353858D3*
D39*
X1284961D3*
X1184961D3*
X1084961D3*
M02*
