G04 DipTrace 3.3.0.0*
G04 ESP32externalssr.gtl*
%MOIN*%
G04 #@! TF.FileFunction,Copper,L1,Top*
G04 #@! TF.Part,Single*
%AMOUTLINE0*
4,1,4,
-0.031496,-0.045276,
-0.031496,0.045276,
0.031496,0.045276,
0.031496,-0.045276,
-0.031496,-0.045276,
0*%
%AMOUTLINE1*
4,1,4,
-0.013,-0.04,
0.013,-0.04,
0.013,0.04,
-0.013,0.04,
-0.013,-0.04,
0*%
G04 #@! TA.AperFunction,Conductor*
%ADD13C,0.012992*%
G04 #@! TA.AperFunction,CopperBalancing*
%ADD14C,0.025*%
%ADD17R,0.062992X0.153543*%
%ADD19R,0.055118X0.088583*%
%ADD20R,0.03937X0.043307*%
%ADD21R,0.070866X0.047244*%
G04 #@! TA.AperFunction,ComponentPad*
%ADD22R,0.090551X0.090551*%
%ADD23C,0.090551*%
%ADD24R,0.059055X0.059055*%
%ADD25C,0.059055*%
%ADD26R,0.066929X0.066929*%
%ADD27C,0.066929*%
%ADD28R,0.062992X0.070866*%
%ADD29R,0.070866X0.062992*%
%ADD31R,0.031496X0.035433*%
%ADD33R,0.037402X0.084646*%
%ADD34R,0.127953X0.084646*%
%ADD36O,0.07874X0.027559*%
G04 #@! TA.AperFunction,ComponentPad*
%ADD38C,0.059055*%
G04 #@! TA.AperFunction,ViaPad*
%ADD39C,0.04*%
%ADD85OUTLINE0*%
%ADD86OUTLINE1*%
%FSLAX26Y26*%
G04*
G70*
G90*
G75*
G01*
G04 Top*
%LPD*%
X507795Y1221673D2*
D13*
Y1085157D1*
X533780Y1059173D1*
X826546D1*
X1968819Y2700276D2*
X2021776Y2753232D1*
Y3105530D1*
X1995790Y3131516D1*
X1778318D1*
X826546Y1059173D2*
Y1001937D1*
X852530Y975953D1*
X1253318D1*
X1279302Y949969D1*
X1650610D1*
Y701201D1*
X1879055Y472756D1*
X1650610Y949969D2*
Y1155530D1*
X1676596Y1181516D1*
X1731516D1*
X1253318Y975953D2*
Y1037765D1*
Y1266112D2*
Y1580528D1*
X1227329Y1606516D1*
X1100266D1*
X1253318Y1037765D2*
Y1266112D1*
X1725266Y1381516D2*
Y1432500D1*
X1980315D1*
X1731516Y1181516D2*
Y1381516D1*
X1725266D1*
X1618547Y1573917D2*
X1699283D1*
X1725266Y1547934D1*
Y1491752D1*
X1618547Y2981516D2*
X1187766D1*
X1725266Y1491752D2*
X1968818D1*
Y1575265D1*
X1162766Y1037765D2*
Y1472657D1*
X1100266D1*
X1968819Y2900276D2*
Y3055531D1*
X1942835Y3081516D1*
X1778318D1*
X1187766Y3131516D2*
X1246626D1*
Y3168988D1*
X1324453D1*
X746094Y2244409D2*
X968819D1*
X1100266Y1472657D2*
X1028075D1*
X1002091Y1498642D1*
Y1653071D1*
X1126795Y1777776D1*
X1494016D1*
Y1681516D1*
X826546Y1126102D2*
X693878D1*
X657795Y1162185D1*
X607795D1*
Y1221673D1*
X853071Y3131516D2*
X983024Y3261469D1*
X1324453D1*
X1002091Y1653071D2*
X630236D1*
X1968818Y1327234D2*
X2019803D1*
Y1248965D1*
X2008307D1*
X657795Y1162185D2*
Y1221673D1*
X1100266Y1472657D2*
Y1152087D1*
X1074282Y1126102D1*
X826546D1*
X1324453Y3168988D2*
X1458933Y3034508D1*
X1618547D1*
X968819Y2244409D2*
Y2305831D1*
X994803Y2331815D1*
X1030332D1*
X1056319Y2357802D1*
Y2437765D1*
X1968818Y895984D2*
Y817720D1*
X1779055D1*
X2008307Y1248965D2*
Y1208783D1*
X2019803D1*
Y895984D1*
X1968818D1*
X1731516Y1071280D2*
X1790425D1*
X1863161Y1144016D1*
X1837177Y1170000D1*
Y1366016D1*
X1863161Y1392000D1*
X2019803D1*
Y1725047D1*
X1993819Y1751031D1*
X1863161D1*
X1837177Y1777016D1*
Y2481516D1*
X1778318D1*
X1968818Y1144016D2*
X1863161D1*
X1483508Y2431516D2*
X1778318D1*
X1579055Y2531516D2*
X1778318D1*
X1384961Y2481516D2*
X1187766D1*
X1679055Y2175988D2*
X1410752D1*
X1384768Y2201972D1*
Y2405531D1*
X1358783Y2431516D1*
X1187766D1*
X1238976Y810913D2*
X533780D1*
X507795Y836898D1*
Y979673D1*
X1084961Y3221980D2*
X1424453D1*
X1279055Y472756D2*
X1230035Y521776D1*
X1028075D1*
X979055Y472756D1*
X1424453Y703154D2*
X1238976D1*
X1424453Y2731516D2*
X1778318D1*
X1184961Y3353858D2*
X1237862Y3300957D1*
X1632051D1*
X1658035Y3274972D1*
Y2857500D1*
X1684020Y2831516D1*
X1778318D1*
X685555Y896386D2*
X607795D1*
Y979673D1*
X1697524Y3145020D2*
Y3031516D1*
X1778318D1*
X879055Y547760D2*
X1528075D1*
X1278465Y626736D2*
X805043D1*
X779055Y600748D1*
Y472756D1*
X1331457Y2784508D2*
X1334449Y2781516D1*
X1778318D1*
X871807Y2583976D2*
X989980D1*
X1087520Y2681516D1*
X1187766D1*
X565473Y906681D2*
X557795Y914359D1*
Y979673D1*
X1115402Y2831516D2*
X1187766D1*
X957847Y1757007D2*
D3*
Y2860307D2*
X979055Y2881516D1*
X1187766D1*
X968819Y1850709D2*
X709764D1*
X630236Y1930236D1*
X957847Y1757007D2*
X968819Y1767979D1*
Y1850709D1*
X630236Y2363307D2*
Y2202878D1*
X656220Y2176894D1*
X1053071D1*
X1079055Y2150909D1*
Y2047559D1*
X1012766Y2795344D2*
Y2681522D1*
X986780Y2655535D1*
X591453D1*
X565469Y2629551D1*
Y2176894D1*
X591453Y2150909D1*
X942835D1*
X968819Y2124925D1*
Y2047559D1*
Y1942165D1*
X994803Y1916181D1*
X1494016D1*
X1570984Y1839213D1*
Y1711543D1*
Y1381669D1*
X1343869Y1154554D1*
Y1037765D1*
X1570984Y1711543D2*
X1968819D1*
X1494016Y1916181D2*
Y2016161D1*
X1444016Y2244409D2*
Y2655530D1*
X1470001Y2681516D1*
X1778318D1*
X630236Y2796378D2*
X720823D1*
X849710Y2925265D1*
X1012766D1*
X630236Y2519213D2*
X746350D1*
X747580Y2520442D1*
X1018917D1*
X1079055Y2244409D2*
X1019803D1*
Y2279846D1*
X1045787Y2305831D1*
X1065571D1*
X1091555Y2331815D1*
Y2474972D1*
X981516D1*
Y2437765D1*
X1091555Y2331815D2*
X1307795D1*
X1333780Y2305831D1*
Y2244409D1*
X1317953Y2731516D2*
X1187766D1*
X1079055Y1850709D2*
X1317953D1*
X630236Y1392913D2*
X557795Y1320472D1*
Y1221673D1*
X1915142Y2753283D2*
Y2955531D1*
X1889157Y2981516D1*
X1778318D1*
X1915142Y2753283D2*
Y2553953D1*
X1968819Y2500276D1*
Y2056516D2*
X1863161Y2162173D1*
Y2555530D1*
X1837176Y2581516D1*
X1778318D1*
X1862150Y2913740D2*
X1844374Y2931516D1*
X1778318D1*
X1968819Y1956516D2*
X2021772Y2009469D1*
Y2254055D1*
X1889146Y2386681D1*
Y2605531D1*
X1863161Y2631516D1*
X1778318D1*
D39*
X1980315Y1432500D3*
X1618547Y1573917D3*
Y2981516D3*
Y3034508D3*
X746094Y2244409D3*
X1324453Y3261469D3*
Y3168988D3*
X1779055Y817720D3*
X2008307Y1248965D3*
X853071Y3131516D3*
X1483508Y2431516D3*
X1579055Y2531516D3*
X1384961Y2481516D3*
X1679055Y2175988D3*
X1238976Y810913D3*
X1424453Y3221980D3*
X1084961D3*
X1238976Y703154D3*
X1424453D3*
Y2731516D3*
X685555Y896386D3*
X1697524Y3145020D3*
X1528075Y547760D3*
X879055D3*
X1278465Y626736D3*
X1331457Y2784508D3*
X871807Y2583976D3*
X1115402Y2831516D3*
X1968819Y1711543D3*
X1317953Y2731516D3*
Y1850709D3*
X630236Y1392913D3*
X1862150Y2913740D3*
X1915142Y2753283D3*
X565473Y906681D3*
X957847Y2860307D3*
Y1757007D3*
X582266Y3381647D2*
D14*
X1033820D1*
X600028Y3356778D2*
X1026500D1*
X608318Y3331909D2*
X1030914D1*
X609645Y3307041D2*
X1051691D1*
X1118232D2*
X1151700D1*
X604299Y3282172D2*
X1207500D1*
X590878Y3257303D2*
X1052229D1*
X1117694D2*
X1391729D1*
X1457194D2*
X1622536D1*
X427784Y3232434D2*
X461145D1*
X563104D2*
X1037158D1*
X1472265D2*
X1622536D1*
X427784Y3207566D2*
X1038270D1*
X1471153D2*
X1622536D1*
X427784Y3182697D2*
X1057611D1*
X1112311D2*
X1397076D1*
X1451811D2*
X1622536D1*
X427784Y3157828D2*
X1622536D1*
X427784Y3132959D2*
X1622536D1*
X427784Y3108091D2*
X1129416D1*
X1246123D2*
X1622536D1*
X427784Y3083222D2*
X1119440D1*
X1256099D2*
X1622536D1*
X1733000D2*
X1986294D1*
X427784Y3058353D2*
X1126724D1*
X1248815D2*
X1622536D1*
X1836418D2*
X1986294D1*
X427784Y3033484D2*
X1119440D1*
X1256063D2*
X1622536D1*
X1846645D2*
X1986294D1*
X427784Y3008615D2*
X1126545D1*
X1910483D2*
X1986294D1*
X427784Y2983747D2*
X1119476D1*
X1936068D2*
X1986294D1*
X427784Y2958878D2*
X948344D1*
X1077180D2*
X1126366D1*
X1950458D2*
X1986294D1*
X427784Y2934009D2*
X809293D1*
X1077180D2*
X1119476D1*
X1950637D2*
X1986294D1*
X427784Y2909140D2*
X784425D1*
X1950637D2*
X1986294D1*
X427784Y2884272D2*
X759557D1*
X857856D2*
X915510D1*
X1950637D2*
X1986294D1*
X427784Y2859403D2*
X555986D1*
X704487D2*
X734690D1*
X832989D2*
X908872D1*
X1950637D2*
X1986294D1*
X427784Y2834534D2*
X555986D1*
X808121D2*
X916658D1*
X427784Y2809665D2*
X555986D1*
X783253D2*
X948344D1*
X427784Y2784797D2*
X555986D1*
X758385D2*
X948344D1*
X427784Y2759928D2*
X555986D1*
X704487D2*
X948344D1*
X427784Y2735059D2*
X555986D1*
X704487D2*
X977267D1*
X427784Y2710190D2*
X977267D1*
X427784Y2685322D2*
X574790D1*
X427784Y2660453D2*
X547231D1*
X427784Y2635584D2*
X530545D1*
X427784Y2610715D2*
X529970D1*
X427784Y2585846D2*
X529970D1*
X427784Y2560978D2*
X529970D1*
X427784Y2536109D2*
X529970D1*
X427784Y2511240D2*
X529970D1*
X427784Y2486371D2*
X529970D1*
X751962D2*
X948057D1*
X427784Y2461503D2*
X529970D1*
X675385D2*
X936789D1*
X427784Y2436634D2*
X529970D1*
X600961D2*
X936789D1*
X1026261D2*
X1056068D1*
X427784Y2411765D2*
X529970D1*
X704487D2*
X936789D1*
X1026261D2*
X1056068D1*
X427784Y2386896D2*
X529970D1*
X704487D2*
X1056068D1*
X427784Y2362028D2*
X529970D1*
X704487D2*
X1056068D1*
X427784Y2337159D2*
X529970D1*
X704487D2*
X1032959D1*
X427784Y2312290D2*
X529970D1*
X704487D2*
X1003103D1*
X1898641D2*
X1914382D1*
X427784Y2287421D2*
X529970D1*
X665732D2*
X985197D1*
X1898641D2*
X1939250D1*
X427784Y2262552D2*
X529970D1*
X665732D2*
X984300D1*
X1898641D2*
X1964118D1*
X427784Y2237684D2*
X529970D1*
X665732D2*
X985018D1*
X1898641D2*
X1986294D1*
X427784Y2212815D2*
X529970D1*
X669464D2*
X1007804D1*
X1898641D2*
X1986294D1*
X427784Y2187946D2*
X529970D1*
X1898641D2*
X1986294D1*
X427784Y2163077D2*
X533021D1*
X1911416D2*
X1986294D1*
X427784Y2138209D2*
X555018D1*
X1936284D2*
X1986294D1*
X427784Y2113340D2*
X931263D1*
X427784Y2088471D2*
X908333D1*
X427784Y2063602D2*
X908333D1*
X427784Y2038734D2*
X908333D1*
X427784Y2013865D2*
X908333D1*
X427784Y1988996D2*
X555986D1*
X704487D2*
X908333D1*
X427784Y1964127D2*
X555986D1*
X704487D2*
X933345D1*
X427784Y1939259D2*
X555986D1*
X704487D2*
X933452D1*
X427784Y1914390D2*
X555986D1*
X704487D2*
X947447D1*
X427784Y1889521D2*
X555986D1*
X720097D2*
X908333D1*
X427784Y1864652D2*
X555986D1*
X1364792D2*
X1496403D1*
X427784Y1839783D2*
X671534D1*
X1365653D2*
X1521271D1*
X427784Y1814915D2*
X908333D1*
X1139547D2*
X1285799D1*
X1350116D2*
X1535481D1*
X427784Y1790046D2*
X908333D1*
X1139547D2*
X1535481D1*
X427784Y1765177D2*
X909589D1*
X1006130D2*
X1535481D1*
X427784Y1740308D2*
X911958D1*
X1003726D2*
X1535481D1*
X427784Y1715440D2*
X934529D1*
X981154D2*
X1535481D1*
X427784Y1690571D2*
X1535481D1*
X427784Y1665702D2*
X1043724D1*
X1156807D2*
X1535481D1*
X427784Y1640833D2*
X1043724D1*
X1156807D2*
X1535481D1*
X427784Y1615965D2*
X1043724D1*
X1267044D2*
X1535481D1*
X427784Y1591096D2*
X1043724D1*
X1287067D2*
X1535481D1*
X427784Y1566227D2*
X555986D1*
X704487D2*
X1043724D1*
X1156807D2*
X1217834D1*
X1288790D2*
X1535481D1*
X427784Y1541358D2*
X555986D1*
X704487D2*
X1043724D1*
X1156807D2*
X1217834D1*
X1288790D2*
X1535481D1*
X427784Y1516490D2*
X555986D1*
X704487D2*
X1217834D1*
X1288790D2*
X1535481D1*
X427784Y1491621D2*
X555986D1*
X704487D2*
X1217834D1*
X1288790D2*
X1535481D1*
X427784Y1466752D2*
X555986D1*
X704487D2*
X1217834D1*
X1288790D2*
X1535481D1*
X427784Y1441883D2*
X555986D1*
X704487D2*
X1217834D1*
X1288790D2*
X1535481D1*
X427784Y1417014D2*
X587995D1*
X672479D2*
X1217834D1*
X1288790D2*
X1535481D1*
X427784Y1392146D2*
X580316D1*
X679225D2*
X1217834D1*
X1288790D2*
X1532323D1*
X427784Y1367277D2*
X555448D1*
X671510D2*
X1217834D1*
X1288790D2*
X1507456D1*
X427784Y1342408D2*
X530652D1*
X628879D2*
X1217834D1*
X1288790D2*
X1482588D1*
X1872661D2*
X2041520D1*
X427784Y1317539D2*
X522291D1*
X604012D2*
X1160348D1*
X1346276D2*
X1457684D1*
X1872661D2*
X2041520D1*
X427784Y1292671D2*
X522291D1*
X593282D2*
X1160348D1*
X1346276D2*
X1432817D1*
X1872661D2*
X2041520D1*
X427784Y1267802D2*
X466527D1*
X599060D2*
X1160348D1*
X1346276D2*
X1407949D1*
X1872661D2*
X2041520D1*
X427784Y1242933D2*
X465809D1*
X599777D2*
X1160348D1*
X1346276D2*
X1383081D1*
X1872661D2*
X2041520D1*
X427784Y1218064D2*
X465809D1*
X599777D2*
X1160348D1*
X1872661D2*
X2041520D1*
X427784Y1193196D2*
X465809D1*
X599777D2*
X1217834D1*
X1288790D2*
X1333346D1*
X1872661D2*
X1908605D1*
X2029009D2*
X2041520D1*
X427784Y1168327D2*
X469398D1*
X596189D2*
X1217834D1*
X1288790D2*
X1311384D1*
X427784Y1143458D2*
X472305D1*
X543296D2*
X1217834D1*
X1288790D2*
X1308370D1*
X427784Y1118589D2*
X472305D1*
X543296D2*
X1217834D1*
X1288790D2*
X1308370D1*
X427784Y1093720D2*
X472305D1*
X548391D2*
X777858D1*
X875224D2*
X1205634D1*
X1862004D2*
X1908820D1*
X2028829D2*
X2041520D1*
X427784Y1068852D2*
X476611D1*
X875224D2*
X1205634D1*
X1837136D2*
X2041520D1*
X427784Y1043983D2*
X481778D1*
X875224D2*
X1205634D1*
X1811443D2*
X2041520D1*
X427784Y1019114D2*
X465809D1*
X699786D2*
X777858D1*
X875224D2*
X1205634D1*
X1795941D2*
X2041520D1*
X427784Y994245D2*
X465809D1*
X699786D2*
X791961D1*
X1686099D2*
X2041520D1*
X427784Y969377D2*
X465809D1*
X699786D2*
X809939D1*
X1686099D2*
X2041520D1*
X427784Y944508D2*
X465809D1*
X699786D2*
X840046D1*
X1686099D2*
X2041520D1*
X427784Y919639D2*
X472305D1*
X728314D2*
X1263838D1*
X1686099D2*
X2041520D1*
X427784Y894770D2*
X472305D1*
X734522D2*
X1615108D1*
X1686099D2*
X2041520D1*
X427784Y869902D2*
X472305D1*
X726269D2*
X1615108D1*
X1686099D2*
X2041520D1*
X427784Y845033D2*
X472305D1*
X548822D2*
X1204880D1*
X1273072D2*
X1615108D1*
X1686099D2*
X2041520D1*
X427784Y820164D2*
X476862D1*
X1287031D2*
X1615108D1*
X1686099D2*
X2041520D1*
X427784Y795295D2*
X500258D1*
X1285273D2*
X1615108D1*
X1686099D2*
X2041520D1*
X427784Y770427D2*
X1213636D1*
X1264316D2*
X1615108D1*
X1686099D2*
X2041520D1*
X427784Y745558D2*
X456444D1*
X567804D2*
X1217404D1*
X1260549D2*
X1402889D1*
X1445998D2*
X1615108D1*
X1686099D2*
X1902146D1*
X2013471D2*
X2041520D1*
X592995Y720689D2*
X1193433D1*
X1470005D2*
X1615108D1*
X1686099D2*
X1876919D1*
X605303Y695820D2*
X1190562D1*
X1472875D2*
X1615575D1*
X1705154D2*
X1864611D1*
X609825Y670951D2*
X1202942D1*
X1460495D2*
X1631723D1*
X1730021D2*
X1860090D1*
X607744Y646083D2*
X775239D1*
X1323238D2*
X1656590D1*
X1754889D2*
X1862207D1*
X598521Y621214D2*
X750694D1*
X1327114D2*
X1681458D1*
X1779757D2*
X1871393D1*
X427784Y596345D2*
X445068D1*
X579180D2*
X743553D1*
X1316133D2*
X1706326D1*
X1804625D2*
X1890735D1*
X2024846D2*
X2041520D1*
X427784Y571476D2*
X501730D1*
X522519D2*
X743553D1*
X814544D2*
X836565D1*
X1570552D2*
X1731194D1*
X1829492D2*
X1947396D1*
X1968185D2*
X2041520D1*
X427784Y546608D2*
X743553D1*
X814544D2*
X830070D1*
X1577047D2*
X1756061D1*
X1854360D2*
X2041520D1*
X427784Y521739D2*
X549384D1*
X608748D2*
X649357D1*
X708722D2*
X743553D1*
X814544D2*
X838036D1*
X1608733D2*
X1649378D1*
X1708742D2*
X1780929D1*
X1937576D2*
X2041520D1*
X427784Y496870D2*
X525987D1*
X1732103D2*
X1805797D1*
X1937576D2*
X2041520D1*
X427784Y472001D2*
X520533D1*
X1737557D2*
X1820545D1*
X1937576D2*
X2041520D1*
X427784Y447133D2*
X526741D1*
X1731385D2*
X1820545D1*
X1937576D2*
X2041520D1*
X1055402Y1677299D2*
X1154318D1*
Y1639513D1*
X1229918Y1639402D1*
X1235030Y1638593D1*
X1239953Y1636993D1*
X1244566Y1634643D1*
X1248754Y1631600D1*
X1276644Y1603854D1*
X1280006Y1599918D1*
X1282710Y1595504D1*
X1284691Y1590721D1*
X1285900Y1585688D1*
X1286305Y1580517D1*
X1286306Y1334900D1*
X1343786Y1334926D1*
Y1201137D1*
X1537972Y1395309D1*
X1537996Y1825547D1*
X1480341Y1883203D1*
X1351233Y1883193D1*
X1355566Y1878036D1*
X1359378Y1871816D1*
X1362169Y1865076D1*
X1363872Y1857982D1*
X1364445Y1850709D1*
X1363872Y1843436D1*
X1362169Y1836342D1*
X1359378Y1829602D1*
X1355566Y1823381D1*
X1350828Y1817834D1*
X1345280Y1813096D1*
X1339060Y1809284D1*
X1332320Y1806492D1*
X1325226Y1804789D1*
X1317953Y1804217D1*
X1310680Y1804789D1*
X1303586Y1806492D1*
X1296846Y1809284D1*
X1290625Y1813096D1*
X1285193Y1817727D1*
X1137061Y1817720D1*
X1137044Y1788783D1*
X1001796D1*
X1001807Y1772158D1*
X1003767Y1764280D1*
X1004339Y1757007D1*
X1003767Y1749734D1*
X1002063Y1742641D1*
X999272Y1735900D1*
X995460Y1729680D1*
X990722Y1724133D1*
X985174Y1719394D1*
X978954Y1715583D1*
X972214Y1712791D1*
X965120Y1711088D1*
X957847Y1710515D1*
X950574Y1711088D1*
X943480Y1712791D1*
X936740Y1715583D1*
X930519Y1719394D1*
X924972Y1724133D1*
X920234Y1729680D1*
X916422Y1735900D1*
X913630Y1742641D1*
X911927Y1749734D1*
X911355Y1757007D1*
X911927Y1764280D1*
X913630Y1771374D1*
X916422Y1778114D1*
X920234Y1784335D1*
X923956Y1788783D1*
X910831D1*
Y1817742D1*
X707176Y1817822D1*
X702063Y1818632D1*
X697140Y1820232D1*
X692527Y1822582D1*
X688340Y1825624D1*
X655355Y1858466D1*
X558469Y1858468D1*
Y2002004D1*
X702004D1*
Y1905152D1*
X723417Y1883708D1*
X910823Y1883697D1*
X910831Y1912634D1*
X951703D1*
X942131Y1922775D1*
X939426Y1927189D1*
X937445Y1931971D1*
X936237Y1937005D1*
X935831Y1942175D1*
Y1985621D1*
X910831Y1985634D1*
Y2109484D1*
X935842D1*
X932501Y2114590D1*
X929177Y2117914D1*
X588865Y2118023D1*
X583752Y2118833D1*
X578829Y2120432D1*
X574216Y2122782D1*
X570029Y2125825D1*
X542142Y2153568D1*
X538780Y2157504D1*
X536076Y2161917D1*
X534095Y2166700D1*
X532886Y2171733D1*
X532481Y2176904D1*
X532582Y2632139D1*
X533392Y2637252D1*
X534991Y2642175D1*
X537341Y2646787D1*
X540384Y2650975D1*
X568126Y2678862D1*
X572063Y2682224D1*
X576476Y2684928D1*
X581259Y2686909D1*
X586292Y2688118D1*
X591453Y2688524D1*
X973081D1*
X979769Y2695177D1*
X979778Y2745217D1*
X950841Y2745230D1*
Y2814378D1*
X943480Y2816091D1*
X936740Y2818883D1*
X930519Y2822694D1*
X924972Y2827433D1*
X920234Y2832980D1*
X916422Y2839200D1*
X913630Y2845941D1*
X911927Y2853034D1*
X911355Y2860307D1*
X911927Y2867580D1*
X913630Y2874674D1*
X916422Y2881414D1*
X920234Y2887635D1*
X924130Y2892271D1*
X863381Y2892277D1*
X742247Y2771293D1*
X738059Y2768251D1*
X733447Y2765901D1*
X728524Y2764301D1*
X723411Y2763491D1*
X701984Y2763390D1*
X702004Y2724610D1*
X558469D1*
Y2868146D1*
X702004D1*
Y2829355D1*
X707136Y2829366D1*
X828286Y2950350D1*
X832474Y2953392D1*
X837086Y2955742D1*
X842009Y2957342D1*
X847122Y2958152D1*
X914014Y2958253D1*
X950867D1*
X950841Y2975379D1*
X1074692D1*
Y2914484D1*
X1125642Y2914504D1*
X1123875Y2919071D1*
X1122400Y2925216D1*
X1121904Y2931516D1*
X1122400Y2937816D1*
X1123875Y2943960D1*
X1126294Y2949799D1*
X1129595Y2955187D1*
X1130628Y2956496D1*
X1127839Y2960474D1*
X1124970Y2966104D1*
X1123017Y2972115D1*
X1122028Y2978356D1*
Y2984675D1*
X1123017Y2990917D1*
X1124970Y2996927D1*
X1127839Y3002558D1*
X1130628Y3006496D1*
X1127839Y3010474D1*
X1124970Y3016104D1*
X1123017Y3022115D1*
X1122028Y3028356D1*
Y3034675D1*
X1123017Y3040917D1*
X1124970Y3046927D1*
X1127839Y3052558D1*
X1130628Y3056496D1*
X1127839Y3060474D1*
X1124970Y3066104D1*
X1123017Y3072115D1*
X1122028Y3078356D1*
Y3084675D1*
X1123017Y3090917D1*
X1124970Y3096927D1*
X1127839Y3102558D1*
X1131553Y3107670D1*
X1136022Y3112139D1*
X1141134Y3115853D1*
X1146765Y3118722D1*
X1152775Y3120675D1*
X1159016Y3121663D1*
X1198922Y3121787D1*
X1216517Y3121663D1*
X1222758Y3120675D1*
X1228768Y3118722D1*
X1234399Y3115853D1*
X1239511Y3112139D1*
X1243980Y3107670D1*
X1247694Y3102558D1*
X1250563Y3096927D1*
X1252516Y3090917D1*
X1253504Y3084675D1*
Y3078356D1*
X1252516Y3072115D1*
X1250563Y3066104D1*
X1247694Y3060474D1*
X1244905Y3056535D1*
X1247694Y3052558D1*
X1250563Y3046927D1*
X1252516Y3040917D1*
X1253504Y3034675D1*
Y3028356D1*
X1252516Y3022115D1*
X1250563Y3016104D1*
X1249824Y3014500D1*
X1585758Y3014504D1*
X1591220Y3019129D1*
X1597440Y3022941D1*
X1604180Y3025732D1*
X1611274Y3027435D1*
X1618547Y3028008D1*
X1625041Y3027528D1*
X1625047Y3261305D1*
X1618394Y3267962D1*
X1431726Y3267900D1*
X1438820Y3266197D1*
X1445560Y3263405D1*
X1451780Y3259593D1*
X1457328Y3254855D1*
X1462066Y3249308D1*
X1465878Y3243087D1*
X1468669Y3236347D1*
X1470372Y3229253D1*
X1470945Y3221980D1*
X1470372Y3214707D1*
X1468669Y3207613D1*
X1465878Y3200873D1*
X1462066Y3194653D1*
X1457328Y3189105D1*
X1451780Y3184367D1*
X1445560Y3180556D1*
X1438820Y3177764D1*
X1431726Y3176061D1*
X1424453Y3175488D1*
X1417180Y3176061D1*
X1410086Y3177764D1*
X1403346Y3180556D1*
X1397125Y3184367D1*
X1391693Y3188999D1*
X1117751Y3188992D1*
X1112288Y3184367D1*
X1106068Y3180556D1*
X1099327Y3177764D1*
X1092234Y3176061D1*
X1084961Y3175488D1*
X1077688Y3176061D1*
X1070594Y3177764D1*
X1063854Y3180556D1*
X1057633Y3184367D1*
X1052086Y3189105D1*
X1047348Y3194653D1*
X1043536Y3200873D1*
X1040744Y3207613D1*
X1039041Y3214707D1*
X1038469Y3221980D1*
X1039041Y3229253D1*
X1040744Y3236347D1*
X1043536Y3243087D1*
X1047348Y3249308D1*
X1052086Y3254855D1*
X1057633Y3259593D1*
X1063854Y3263405D1*
X1070594Y3266197D1*
X1077688Y3267900D1*
X1084961Y3268472D1*
X1092234Y3267900D1*
X1099327Y3266197D1*
X1106068Y3263405D1*
X1112288Y3259593D1*
X1117720Y3254962D1*
X1391663Y3254969D1*
X1397125Y3259593D1*
X1403346Y3263405D1*
X1410086Y3266197D1*
X1417760Y3267969D1*
X1235274Y3268070D1*
X1230161Y3268880D1*
X1225238Y3270480D1*
X1220626Y3272830D1*
X1216438Y3275872D1*
X1193653Y3298513D1*
X1184961Y3297839D1*
X1176197Y3298528D1*
X1167650Y3300580D1*
X1159528Y3303944D1*
X1152033Y3308537D1*
X1145349Y3314246D1*
X1139640Y3320931D1*
X1134968Y3328598D1*
X1130282Y3320931D1*
X1124573Y3314246D1*
X1117888Y3308537D1*
X1110393Y3303944D1*
X1102272Y3300580D1*
X1093724Y3298528D1*
X1084961Y3297839D1*
X1076197Y3298528D1*
X1067650Y3300580D1*
X1059528Y3303944D1*
X1052033Y3308537D1*
X1045349Y3314246D1*
X1039640Y3320931D1*
X1035047Y3328426D1*
X1031683Y3336547D1*
X1029631Y3345095D1*
X1028941Y3353858D1*
X1029631Y3362622D1*
X1031683Y3371169D1*
X1035047Y3379291D1*
X1039640Y3386786D1*
X1045349Y3393470D1*
X1052033Y3399179D1*
X1059528Y3403772D1*
X1065957Y3406512D1*
X536928Y3406516D1*
X548599Y3402542D1*
X555395Y3399409D1*
X561924Y3395752D1*
X568147Y3391594D1*
X574024Y3386961D1*
X579519Y3381881D1*
X584599Y3376386D1*
X589232Y3370509D1*
X593390Y3364287D1*
X597046Y3357757D1*
X600179Y3350961D1*
X602770Y3343940D1*
X604801Y3336737D1*
X606261Y3329398D1*
X607141Y3321966D1*
X607434Y3314488D1*
X607141Y3307010D1*
X606261Y3299579D1*
X604801Y3292239D1*
X602770Y3285036D1*
X600179Y3278015D1*
X597046Y3271219D1*
X593390Y3264690D1*
X589232Y3258467D1*
X584599Y3252590D1*
X579519Y3247095D1*
X574024Y3242015D1*
X568147Y3237382D1*
X561924Y3233224D1*
X555395Y3229568D1*
X548599Y3226435D1*
X541578Y3223845D1*
X534375Y3221813D1*
X527036Y3220353D1*
X519604Y3219474D1*
X512126Y3219180D1*
X504648Y3219474D1*
X497216Y3220353D1*
X489877Y3221813D1*
X482674Y3223845D1*
X475653Y3226435D1*
X468857Y3229568D1*
X462327Y3233224D1*
X456105Y3237382D1*
X450228Y3242015D1*
X444733Y3247095D1*
X439653Y3252590D1*
X435020Y3258467D1*
X430862Y3264690D1*
X425260Y3275440D1*
X425267Y705705D1*
X430862Y716255D1*
X435020Y722478D1*
X439653Y728355D1*
X444733Y733850D1*
X450228Y738930D1*
X456105Y743563D1*
X462327Y747720D1*
X468857Y751377D1*
X475653Y754510D1*
X482674Y757100D1*
X489877Y759132D1*
X497216Y760592D1*
X504648Y761471D1*
X512126Y761765D1*
X519604Y761471D1*
X527036Y760592D1*
X534375Y759132D1*
X541578Y757100D1*
X548599Y754510D1*
X555395Y751377D1*
X561924Y747720D1*
X568147Y743563D1*
X574024Y738930D1*
X579519Y733850D1*
X584599Y728355D1*
X589232Y722478D1*
X593390Y716255D1*
X597046Y709726D1*
X600179Y702930D1*
X602770Y695909D1*
X604801Y688706D1*
X606261Y681366D1*
X607141Y673935D1*
X607434Y666457D1*
X607141Y658979D1*
X606261Y651547D1*
X604801Y644207D1*
X602770Y637005D1*
X600179Y629984D1*
X597046Y623188D1*
X593390Y616658D1*
X589232Y610436D1*
X584599Y604559D1*
X579519Y599063D1*
X574024Y593984D1*
X568147Y589351D1*
X561924Y585193D1*
X555395Y581536D1*
X548599Y578403D1*
X541578Y575813D1*
X534375Y573782D1*
X527036Y572322D1*
X519604Y571442D1*
X512126Y571148D1*
X504648Y571442D1*
X497216Y572322D1*
X489877Y573782D1*
X482674Y575813D1*
X475653Y578403D1*
X468857Y581536D1*
X462327Y585193D1*
X456105Y589351D1*
X450228Y593984D1*
X444733Y599063D1*
X439653Y604559D1*
X435020Y610436D1*
X430862Y616658D1*
X425260Y627409D1*
X425267Y425234D1*
X549378Y425265D1*
X542673Y430158D1*
X536457Y436374D1*
X531290Y443486D1*
X527300Y451318D1*
X524583Y459678D1*
X523208Y468361D1*
Y477151D1*
X524583Y485833D1*
X527300Y494194D1*
X531290Y502026D1*
X536457Y509138D1*
X542673Y515354D1*
X549785Y520521D1*
X557617Y524511D1*
X565978Y527228D1*
X574660Y528603D1*
X583450D1*
X592133Y527228D1*
X600493Y524511D1*
X608325Y520521D1*
X615437Y515354D1*
X621653Y509138D1*
X626820Y502026D1*
X629141Y498188D1*
X633734Y505683D1*
X639443Y512368D1*
X646128Y518077D1*
X653623Y522670D1*
X661744Y526034D1*
X670292Y528086D1*
X679055Y528776D1*
X687819Y528086D1*
X696366Y526034D1*
X704488Y522670D1*
X711983Y518077D1*
X718667Y512368D1*
X724376Y505683D1*
X729048Y498017D1*
X733734Y505683D1*
X739443Y512368D1*
X746060Y518024D1*
X746168Y603336D1*
X746978Y608449D1*
X748578Y613372D1*
X750928Y617984D1*
X753971Y622172D1*
X781717Y650062D1*
X785653Y653424D1*
X790067Y656129D1*
X794849Y658110D1*
X799883Y659318D1*
X805053Y659724D1*
X1222412Y659725D1*
X1217869Y661729D1*
X1211649Y665541D1*
X1206101Y670279D1*
X1201363Y675826D1*
X1197552Y682047D1*
X1194760Y688787D1*
X1193057Y695881D1*
X1192484Y703154D1*
X1193057Y710427D1*
X1194760Y717520D1*
X1197552Y724261D1*
X1201363Y730481D1*
X1206101Y736028D1*
X1211649Y740766D1*
X1217869Y744578D1*
X1224610Y747370D1*
X1231703Y749073D1*
X1238976Y749646D1*
X1246249Y749073D1*
X1253343Y747370D1*
X1260083Y744578D1*
X1266304Y740766D1*
X1271736Y736135D1*
X1391664Y736142D1*
X1397125Y740766D1*
X1403346Y744578D1*
X1410086Y747370D1*
X1417180Y749073D1*
X1424453Y749646D1*
X1431726Y749073D1*
X1438820Y747370D1*
X1445560Y744578D1*
X1451780Y740766D1*
X1457328Y736028D1*
X1462066Y730481D1*
X1465878Y724261D1*
X1468669Y717520D1*
X1470372Y710427D1*
X1470945Y703154D1*
X1470372Y695881D1*
X1468669Y688787D1*
X1465878Y682047D1*
X1462066Y675826D1*
X1457328Y670279D1*
X1451780Y665541D1*
X1445560Y661729D1*
X1438820Y658937D1*
X1431726Y657234D1*
X1424453Y656661D1*
X1417180Y657234D1*
X1410086Y658937D1*
X1403346Y661729D1*
X1397125Y665541D1*
X1391693Y670172D1*
X1295090Y670165D1*
X1299572Y668161D1*
X1305792Y664349D1*
X1311339Y659611D1*
X1316077Y654064D1*
X1319889Y647843D1*
X1322681Y641103D1*
X1324384Y634009D1*
X1324957Y626736D1*
X1324384Y619463D1*
X1322681Y612369D1*
X1319889Y605629D1*
X1316077Y599409D1*
X1311339Y593861D1*
X1305792Y589123D1*
X1299572Y585311D1*
X1292831Y582520D1*
X1285157Y580748D1*
X1495294D1*
X1500747Y585373D1*
X1506968Y589185D1*
X1513708Y591976D1*
X1520802Y593680D1*
X1528075Y594252D1*
X1535348Y593680D1*
X1542442Y591976D1*
X1549182Y589185D1*
X1555402Y585373D1*
X1560950Y580635D1*
X1565688Y575087D1*
X1569500Y568867D1*
X1572291Y562127D1*
X1573995Y555033D1*
X1574567Y547760D1*
X1573995Y540487D1*
X1572291Y533393D1*
X1570292Y528086D1*
X1579055Y528776D1*
X1587819Y528086D1*
X1596366Y526034D1*
X1604488Y522670D1*
X1611983Y518077D1*
X1618667Y512368D1*
X1624376Y505683D1*
X1629048Y498017D1*
X1633734Y505683D1*
X1639443Y512368D1*
X1646128Y518077D1*
X1653623Y522670D1*
X1661744Y526034D1*
X1670292Y528086D1*
X1679055Y528776D1*
X1687819Y528086D1*
X1696366Y526034D1*
X1704488Y522670D1*
X1711983Y518077D1*
X1718667Y512368D1*
X1724376Y505683D1*
X1728969Y498188D1*
X1732333Y490067D1*
X1734385Y481519D1*
X1735075Y472756D1*
X1734385Y463992D1*
X1732333Y455445D1*
X1728969Y447324D1*
X1724376Y439828D1*
X1718667Y433144D1*
X1711983Y427435D1*
X1708740Y425268D1*
X1823051Y425265D1*
X1823036Y482153D1*
X1625526Y679777D1*
X1622483Y683964D1*
X1620133Y688577D1*
X1618533Y693500D1*
X1617724Y698613D1*
X1617622Y765505D1*
Y916972D1*
X1276714Y917082D1*
X1271601Y917892D1*
X1266678Y919491D1*
X1262065Y921841D1*
X1257878Y924884D1*
X1239660Y942958D1*
X849942Y943066D1*
X844829Y943876D1*
X839906Y945476D1*
X835294Y947826D1*
X831106Y950868D1*
X803220Y978611D1*
X799858Y982547D1*
X797153Y986961D1*
X795172Y991743D1*
X793964Y996776D1*
X793558Y1001947D1*
X790046Y1011028D1*
X780369D1*
Y1026207D1*
X696466Y1026185D1*
X697206Y1021752D1*
X697288Y941377D1*
X703347Y939339D1*
X709847Y936027D1*
X715749Y931739D1*
X720908Y926580D1*
X725196Y920678D1*
X728508Y914178D1*
X730763Y907239D1*
X731904Y900034D1*
Y892738D1*
X730763Y885532D1*
X728508Y878594D1*
X725196Y872094D1*
X720908Y866192D1*
X715749Y861033D1*
X709847Y856745D1*
X703347Y853433D1*
X696408Y851178D1*
X689203Y850037D1*
X681907D1*
X674702Y851178D1*
X667763Y853433D1*
X661263Y856745D1*
X655361Y861033D1*
X652795Y863404D1*
X605207Y863499D1*
X600094Y864309D1*
X595171Y865909D1*
X592810Y866998D1*
X589765Y867040D1*
X583265Y863728D1*
X576326Y861474D1*
X569121Y860333D1*
X561825D1*
X554619Y861474D1*
X547681Y863728D1*
X540790Y867302D1*
X540784Y850526D1*
X547437Y843908D1*
X1206213Y843902D1*
X1211649Y848526D1*
X1217869Y852338D1*
X1224610Y855130D1*
X1231703Y856833D1*
X1238976Y857406D1*
X1246249Y856833D1*
X1253343Y855130D1*
X1260083Y852338D1*
X1266304Y848526D1*
X1271851Y843788D1*
X1276589Y838241D1*
X1280401Y832020D1*
X1283193Y825280D1*
X1284896Y818186D1*
X1285469Y810913D1*
X1284896Y803640D1*
X1283193Y796547D1*
X1280401Y789806D1*
X1276589Y783586D1*
X1271851Y778038D1*
X1266304Y773300D1*
X1260083Y769489D1*
X1253343Y766697D1*
X1246249Y764994D1*
X1238976Y764421D1*
X1231703Y764994D1*
X1224610Y766697D1*
X1217869Y769489D1*
X1211649Y773300D1*
X1206217Y777932D1*
X531191Y778027D1*
X526079Y778837D1*
X521155Y780436D1*
X516543Y782786D1*
X512355Y785829D1*
X484469Y813571D1*
X481107Y817508D1*
X478402Y821921D1*
X476422Y826704D1*
X475213Y831737D1*
X474807Y836898D1*
X474650Y922468D1*
X472207Y925831D1*
X470320Y929535D1*
X469035Y933489D1*
X468385Y937595D1*
X468303Y1013164D1*
X468385Y1021752D1*
X469035Y1025858D1*
X470320Y1029811D1*
X472207Y1033515D1*
X474651Y1036878D1*
X477590Y1039818D1*
X480953Y1042261D1*
X484657Y1044149D1*
X488611Y1045433D1*
X492717Y1046084D1*
X494803Y1046165D1*
X497462Y1048838D1*
X482711Y1063733D1*
X479668Y1067921D1*
X477318Y1072533D1*
X475719Y1077456D1*
X474909Y1082569D1*
X474807Y1149462D1*
X474650Y1164468D1*
X472207Y1167831D1*
X470320Y1171535D1*
X469035Y1175489D1*
X468385Y1179595D1*
X468303Y1261673D1*
X468629Y1265818D1*
X469600Y1269860D1*
X471191Y1273700D1*
X473363Y1277245D1*
X476062Y1280406D1*
X479224Y1283106D1*
X482768Y1285278D1*
X486609Y1286869D1*
X490651Y1287839D1*
X494803Y1288165D1*
X522882Y1288083D1*
X524807Y1295164D1*
X524909Y1323061D1*
X525718Y1328173D1*
X527318Y1333097D1*
X529668Y1337709D1*
X532711Y1341897D1*
X579939Y1389269D1*
X583720Y1393050D1*
X584316Y1400186D1*
X586020Y1407280D1*
X588811Y1414020D1*
X592623Y1420241D1*
X597003Y1425401D1*
X558469Y1425397D1*
Y1568933D1*
X702004D1*
Y1425397D1*
X663500D1*
X667849Y1420241D1*
X671661Y1414020D1*
X674453Y1407280D1*
X676156Y1400186D1*
X676728Y1392913D1*
X676156Y1385640D1*
X674453Y1378547D1*
X671661Y1371806D1*
X667849Y1365586D1*
X663111Y1360038D1*
X657564Y1355300D1*
X651343Y1351489D1*
X644603Y1348697D1*
X637509Y1346994D1*
X630393Y1346427D1*
X590762Y1306787D1*
X590940Y1278879D1*
X593384Y1275515D1*
X595271Y1271811D1*
X596556Y1267858D1*
X597206Y1263752D1*
X597287Y1181673D1*
X596961Y1177529D1*
X595991Y1173487D1*
X594400Y1169646D1*
X592228Y1166102D1*
X589528Y1162940D1*
X586367Y1160241D1*
X582823Y1158069D1*
X578982Y1156478D1*
X574940Y1155507D1*
X570787Y1155181D1*
X542709Y1155264D1*
X540784Y1148182D1*
Y1098842D1*
X547437Y1092168D1*
X780340Y1092161D1*
X780369Y1107319D1*
X872723D1*
Y1011028D1*
X864075D1*
X870903Y1008941D1*
X1208107D1*
X1208125Y1106580D1*
X1220361D1*
X1220329Y1197270D1*
X1162849Y1197297D1*
Y1334926D1*
X1220300D1*
X1220329Y1566857D1*
X1213676Y1573517D1*
X1154305Y1573528D1*
X1154318Y1535732D1*
X1046215D1*
Y1677299D1*
X1055402D1*
X598479Y2435075D2*
X702004D1*
Y2291539D1*
X663213D1*
X663225Y2216577D1*
X669878Y2209889D1*
X1021067Y2210043D1*
Y2211443D1*
X1014643Y2211827D1*
X1009609Y2213036D1*
X1004827Y2215017D1*
X1000413Y2217721D1*
X996477Y2221083D1*
X993115Y2225019D1*
X990410Y2229433D1*
X988429Y2234216D1*
X987221Y2239249D1*
X986815Y2244409D1*
X986917Y2282435D1*
X987726Y2287547D1*
X989326Y2292471D1*
X991676Y2297083D1*
X994719Y2301271D1*
X1022461Y2329157D1*
X1026397Y2332519D1*
X1030811Y2335223D1*
X1035593Y2337204D1*
X1040627Y2338413D1*
X1045787Y2338819D1*
X1051924D1*
X1058560Y2345472D1*
X1058567Y2442015D1*
X1023770Y2441984D1*
X1023756Y2393556D1*
X939276D1*
Y2481974D1*
X949287D1*
X950146Y2485176D1*
X945427Y2487454D1*
X755276D1*
X748939Y2486326D1*
X693995Y2486224D1*
X688298Y2477029D1*
X680984Y2468465D1*
X672420Y2461151D1*
X662818Y2455267D1*
X652414Y2450957D1*
X641463Y2448328D1*
X630236Y2447445D1*
X619009Y2448328D1*
X608059Y2450957D1*
X598474Y2454889D1*
X598457Y2435095D1*
X1948139Y2852311D2*
X1955741Y2854747D1*
X1964424Y2856123D1*
X1973214D1*
X1981896Y2854747D1*
X1988790Y2852572D1*
X1988787Y3091871D1*
X1982134Y3098519D1*
X1827027Y3098527D1*
X1822191Y3095633D1*
X1816353Y3093215D1*
X1810208Y3091740D1*
X1803908Y3091244D1*
X1749567Y3091368D1*
X1743326Y3092357D1*
X1737316Y3094310D1*
X1731685Y3097179D1*
X1730504Y3097968D1*
X1730512Y3065106D1*
X1734444Y3067398D1*
X1740282Y3069816D1*
X1746427Y3071292D1*
X1752739Y3071787D1*
X1807068Y3071663D1*
X1813309Y3070675D1*
X1819319Y3068722D1*
X1824950Y3065853D1*
X1830062Y3062139D1*
X1834531Y3057670D1*
X1838245Y3052558D1*
X1841114Y3046927D1*
X1843067Y3040917D1*
X1844056Y3034675D1*
Y3028356D1*
X1843067Y3022115D1*
X1841114Y3016104D1*
X1840375Y3014500D1*
X1891746Y3014402D1*
X1896858Y3013593D1*
X1901782Y3011993D1*
X1906394Y3009643D1*
X1910582Y3006600D1*
X1938468Y2978858D1*
X1941830Y2974922D1*
X1944535Y2970508D1*
X1946516Y2965725D1*
X1947724Y2960692D1*
X1948130Y2955521D1*
Y2852364D1*
X1956788Y2115207D2*
X1964115Y2116288D1*
X1973523D1*
X1982816Y2114816D1*
X1988779Y2113010D1*
X1988783Y2240383D1*
X1896163Y2333011D1*
X1896150Y2175840D1*
X1956748Y2115239D1*
X1793441Y1038445D2*
Y1013291D1*
X1683600D1*
X1683599Y714891D1*
X1869697Y528767D1*
X1935075Y528776D1*
Y425250D1*
X2044026Y425265D1*
X2044016Y625810D1*
X2039059Y616658D1*
X2034901Y610436D1*
X2030268Y604559D1*
X2025188Y599063D1*
X2019693Y593984D1*
X2013816Y589351D1*
X2007594Y585193D1*
X2001064Y581536D1*
X1994268Y578403D1*
X1987247Y575813D1*
X1980045Y573782D1*
X1972705Y572322D1*
X1965273Y571442D1*
X1957795Y571148D1*
X1950317Y571442D1*
X1942886Y572322D1*
X1935546Y573782D1*
X1928343Y575813D1*
X1921322Y578403D1*
X1914526Y581536D1*
X1907997Y585193D1*
X1901774Y589351D1*
X1895897Y593984D1*
X1890402Y599063D1*
X1885322Y604559D1*
X1880689Y610436D1*
X1876532Y616658D1*
X1872875Y623188D1*
X1869742Y629984D1*
X1867152Y637005D1*
X1865120Y644207D1*
X1863660Y651547D1*
X1862781Y658979D1*
X1862487Y666457D1*
X1862781Y673935D1*
X1863660Y681366D1*
X1865120Y688706D1*
X1867152Y695909D1*
X1869742Y702930D1*
X1872875Y709726D1*
X1876532Y716255D1*
X1880689Y722478D1*
X1885322Y728355D1*
X1890402Y733850D1*
X1895897Y738930D1*
X1901774Y743563D1*
X1907997Y747720D1*
X1914526Y751377D1*
X1921322Y754510D1*
X1928343Y757100D1*
X1935546Y759132D1*
X1942886Y760592D1*
X1950317Y761471D1*
X1957795Y761765D1*
X1965273Y761471D1*
X1972705Y760592D1*
X1980045Y759132D1*
X1987247Y757100D1*
X1994268Y754510D1*
X2001064Y751377D1*
X2007594Y747720D1*
X2013816Y743563D1*
X2019693Y738930D1*
X2025188Y733850D1*
X2030268Y728355D1*
X2034901Y722478D1*
X2039059Y716255D1*
X2044025Y706885D1*
X2044016Y1369617D1*
X2039193Y1365312D1*
X2034779Y1362607D1*
X2029997Y1360626D1*
X2024964Y1359418D1*
X2019793Y1359012D1*
X1876805D1*
X1870172Y1352358D1*
X1870165Y1183688D1*
X1876819Y1177011D1*
X1910852Y1177004D1*
X1910912Y1191370D1*
X1911562Y1195476D1*
X1912847Y1199429D1*
X1914734Y1203133D1*
X1917177Y1206497D1*
X1920117Y1209436D1*
X1923480Y1211880D1*
X1927184Y1213767D1*
X1931138Y1215052D1*
X1935244Y1215702D1*
X2000314Y1215784D1*
X2004459Y1215457D1*
X2008501Y1214487D1*
X2012342Y1212896D1*
X2015886Y1210724D1*
X2019047Y1208024D1*
X2021747Y1204863D1*
X2023919Y1201319D1*
X2025510Y1197478D1*
X2026480Y1193436D1*
X2026807Y1189291D1*
X2026725Y1096662D1*
X2026075Y1092556D1*
X2024790Y1088602D1*
X2022903Y1084898D1*
X2020459Y1081535D1*
X2017520Y1078595D1*
X2014156Y1076152D1*
X2010452Y1074265D1*
X2006499Y1072980D1*
X2002393Y1072330D1*
X1937322Y1072248D1*
X1933178Y1072574D1*
X1929136Y1073545D1*
X1925295Y1075135D1*
X1921750Y1077307D1*
X1918589Y1080007D1*
X1915890Y1083168D1*
X1913717Y1086713D1*
X1912127Y1090554D1*
X1911156Y1094596D1*
X1910830Y1098748D1*
Y1111048D1*
X1876847Y1111027D1*
X1811849Y1046195D1*
X1807662Y1043152D1*
X1803049Y1040802D1*
X1798126Y1039203D1*
X1795576Y1038696D1*
X1286316Y1106580D2*
X1298511D1*
X1298676Y1014882D1*
Y1106580D1*
X1310912D1*
X1310982Y1157142D1*
X1311792Y1162255D1*
X1313392Y1167178D1*
X1315742Y1171790D1*
X1318784Y1175978D1*
X1339954Y1197291D1*
X1286336Y1197297D1*
X1286306Y1106606D1*
X829062Y498017D2*
X833734Y505683D1*
X839443Y512368D1*
X844441Y516747D1*
X841442Y520432D1*
X837630Y526653D1*
X834838Y533393D1*
X833135Y540487D1*
X832563Y547760D1*
X833135Y555033D1*
X834838Y562127D1*
X837630Y568867D1*
X841442Y575087D1*
X846180Y580635D1*
X851728Y585373D1*
X857948Y589185D1*
X864688Y591976D1*
X872363Y593748D1*
X818680D1*
X812054Y587094D1*
X812043Y518035D1*
X818667Y512368D1*
X824376Y505683D1*
X829048Y498017D1*
X885747Y593748D2*
X893422Y591976D1*
X900162Y589185D1*
X906383Y585373D1*
X911815Y580741D1*
X1271192Y580816D1*
X1264098Y582520D1*
X1257358Y585311D1*
X1251137Y589123D1*
X1245705Y593755D1*
X885856Y593748D1*
X951711Y1912621D2*
X943734Y1920741D1*
X942131Y1922775D1*
D17*
X1494016Y1681516D3*
Y2016161D3*
D19*
X1100266Y1606516D3*
Y1472657D3*
D20*
X826546Y1059173D3*
Y1126102D3*
D21*
X1012766Y2925265D3*
Y2795344D3*
D22*
X630236Y2796378D3*
D23*
Y2952283D3*
D22*
Y2363307D3*
D23*
Y2519213D3*
D22*
Y1930236D3*
D23*
Y2086142D3*
D24*
X1968819Y2900276D3*
D25*
Y2800276D3*
Y2700276D3*
Y2600276D3*
Y2500276D3*
Y2400276D3*
D26*
Y2156516D3*
D27*
Y2056516D3*
Y1956516D3*
Y1856516D3*
D22*
X630236Y1497165D3*
D23*
Y1653071D3*
D28*
X1444016Y2244409D3*
X1333780D3*
X968819D3*
X1079055D3*
Y2047559D3*
X968819D3*
X1079055Y1850709D3*
X968819D3*
D29*
X1725266Y1381516D3*
Y1491752D3*
X1731516Y1181516D3*
Y1071280D3*
D31*
X981516Y2437765D3*
X1056319D3*
X1018917Y2520442D3*
D33*
X1162766Y1037765D3*
X1253318D3*
X1343869D3*
D34*
X1253318Y1266112D3*
D85*
X1968818Y1575265D3*
Y1327234D3*
Y1144016D3*
Y895984D3*
D36*
X1187766Y3131516D3*
Y3081516D3*
Y3031516D3*
Y2981516D3*
Y2931516D3*
Y2881516D3*
Y2831516D3*
Y2781516D3*
Y2731516D3*
Y2681516D3*
Y2631516D3*
Y2581516D3*
Y2531516D3*
Y2481516D3*
Y2431516D3*
X1778318D3*
Y2481516D3*
Y2531516D3*
Y2581516D3*
Y2631516D3*
Y2681516D3*
Y2731516D3*
Y2781516D3*
Y2831516D3*
Y2881516D3*
Y2931516D3*
Y2981516D3*
Y3031516D3*
Y3081516D3*
Y3131516D3*
D86*
X657795Y1221673D3*
X607795D3*
X557795D3*
X507795D3*
Y979673D3*
X557795D3*
X607795D3*
X657795D3*
D24*
X1879055Y472756D3*
D38*
X1779055D3*
X1679055D3*
X1579055D3*
X1479055D3*
X1379055D3*
X1279055D3*
X1179055D3*
X1079055D3*
X979055D3*
X879055D3*
X779055D3*
X679055D3*
X579055D3*
D24*
X1384961Y3353858D3*
D38*
X1284961D3*
X1184961D3*
X1084961D3*
M02*
