M48
INCH
T01C0.0191
T02C0.0354
T03C0.0433
T04C0.126
%
T03
X+006302Y+027964
X+006302Y+029523
X+006302Y+023633
X+006302Y+025192
X+006302Y+019302
X+006302Y+020861
T02
X+019688Y+029003
X+019688Y+028003
X+019688Y+027003
X+019688Y+026003
X+019688Y+025003
X+019688Y+024003
T03
X+019688Y+021565
X+019688Y+020565
X+019688Y+019565
X+019688Y+018565
X+006302Y+014972
X+006302Y+016531
T02
X+018791Y+004728
X+017791Y+004728
X+016791Y+004728
X+015791Y+004728
X+014791Y+004728
X+013791Y+004728
X+012791Y+004728
X+011791Y+004728
X+010791Y+004728
X+009791Y+004728
X+008791Y+004728
X+007791Y+004728
X+006791Y+004728
X+005791Y+004728
X+013850Y+033539
X+012850Y+033539
X+011850Y+033539
X+010850Y+033539
T04
X+019578Y+006665
X+005121Y+006665
X+005121Y+033145
X+019578Y+033145
T01
X+019803Y+014325
X+016185Y+015739
X+016185Y+029815
X+016185Y+030345
X+007461Y+022444
X+013245Y+032615
X+013245Y+031690
X+017791Y+008177
X+020083Y+012490
X+008531Y+031315
X+014835Y+024315
X+015791Y+025315
X+013850Y+024815
X+016791Y+021760
X+012390Y+008109
X+014245Y+032220
X+010850Y+032220
X+012390Y+007032
X+014245Y+007032
X+014245Y+027315
X+006856Y+008964
X+016975Y+031450
X+015281Y+005478
X+008791Y+005478
X+012785Y+006267
X+013315Y+027845
X+008718Y+025840
X+011154Y+028315
X+019688Y+017115
X+013180Y+027315
X+013180Y+018507
X+006302Y+013929
X+018621Y+029137
X+019151Y+027533
X+005655Y+009067
X+009578Y+028603
X+009578Y+017570
T00
M30
