G04 DipTrace 3.3.0.0*
G04 ESP32externalssr.gto*
%MOIN*%
G04 #@! TF.FileFunction,Legend,Top*
G04 #@! TF.Part,Single*
%ADD10C,0.009843*%
%ADD16C,0.008*%
%ADD18C,0.023616*%
%ADD30C,0.006*%
%ADD32C,0.015403*%
%ADD35C,0.005*%
%ADD37C,0.002*%
%ADD81C,0.00772*%
%ADD84C,0.012351*%
%FSLAX26Y26*%
G04*
G70*
G90*
G75*
G01*
G04 TopSilk*
%LPD*%
X1454661Y1648046D2*
D16*
X1293228D1*
Y1959072D1*
X1383783Y2049631D1*
X1454661D1*
X1533370D2*
X1604248D1*
X1694803Y1959072D1*
Y1648046D1*
X1533370D1*
Y1657908D2*
G03X1533370Y2039769I-39329J190931D01*
G01*
X1454661Y1657908D2*
G02X1454661Y2039769I39329J190931D01*
G01*
X1184912Y1454947D2*
D10*
X1143571D1*
X1184912D2*
Y1594661D1*
X1155388Y1624224D2*
X1184912Y1594661D1*
X1155388Y1624224D2*
X1143571D1*
X1056962Y1454947D2*
X1015621D1*
Y1594661D1*
X1045145Y1624224D2*
X1015621Y1594661D1*
X1056962Y1624224D2*
X1045145D1*
D18*
X1151452Y1645873D3*
X790154Y2714693D2*
D10*
Y3033969D1*
X467321D1*
Y2714693D1*
X790154D1*
G36*
X761676Y2773759D2*
X793152D1*
Y2805239D1*
X761676D1*
Y2773759D1*
G37*
G36*
Y2923755D2*
X793152D1*
Y2955235D1*
X761676D1*
Y2923755D1*
G37*
X790154Y2281622D2*
D10*
Y2600898D1*
X467321D1*
Y2281622D1*
X790154D1*
G36*
X761676Y2340688D2*
X793152D1*
Y2372169D1*
X761676D1*
Y2340688D1*
G37*
G36*
Y2490684D2*
X793152D1*
Y2522164D1*
X761676D1*
Y2490684D1*
G37*
X790154Y1848551D2*
D10*
Y2167827D1*
X467321D1*
Y1848551D1*
X790154D1*
G36*
X761676Y1907617D2*
X793152D1*
Y1939098D1*
X761676D1*
Y1907617D1*
G37*
G36*
Y2057613D2*
X793152D1*
Y2089093D1*
X761676D1*
Y2057613D1*
G37*
X1918819Y2950276D2*
D10*
Y2350276D1*
X2018819Y2950276D2*
Y2350276D1*
X1918819Y2950276D2*
X2018819D1*
X1918819Y2350276D2*
X2018819D1*
X2018824Y2206533D2*
X1918819D1*
Y1806498D1*
X2018824D1*
Y2206533D1*
X790154Y1415480D2*
Y1734756D1*
X467321D1*
Y1415480D1*
X790154D1*
G36*
X761676Y1474546D2*
X793152D1*
Y1506027D1*
X761676D1*
Y1474546D1*
G37*
G36*
Y1624542D2*
X793152D1*
Y1656023D1*
X761676D1*
Y1624542D1*
G37*
X1400677Y2275874D2*
D10*
X1377118D1*
X1400677Y2212945D2*
X1377118D1*
X1012157D2*
X1035717D1*
X1012157Y2275874D2*
X1035717D1*
Y2079024D2*
X1012157D1*
X1035717Y2016094D2*
X1012157D1*
X1035717Y1882173D2*
X1012157D1*
X1035717Y1819244D2*
X1012157D1*
X1756731Y1424854D2*
Y1448413D1*
X1693802Y1424854D2*
Y1448413D1*
X1700051Y1138177D2*
Y1114618D1*
X1762980Y1138177D2*
Y1114618D1*
X987423Y2504686D2*
D16*
X963802D1*
Y2473198D1*
X1050412Y2504686D2*
X1074033D1*
Y2473198D1*
D32*
X1124437Y1007571D3*
X1123398Y1096820D2*
D10*
X1383228D1*
X1123398Y1207056D2*
X1383228D1*
Y1096820D2*
Y1207056D1*
X1123398Y1096820D2*
Y1207056D1*
X2037714Y1559528D2*
D35*
G03X2027878Y1569347I-9859J-40D01*
G01*
X2037714Y1559528D2*
Y1342971D1*
G02X2027878Y1333152I-9859J40D01*
G01*
X1909759D2*
G02X1899923Y1346932I1966J11804D01*
G01*
Y1559528D1*
X1909759Y1569347D2*
G03X1899923Y1559528I22J-9859D01*
G01*
X1909759Y1569347D2*
X1925514D1*
X2012123D2*
X2027878D1*
X2012123Y1333152D2*
X2027878D1*
X1909759D2*
X1925514D1*
X1998341Y1510298D2*
Y1392201D1*
X1939296D2*
Y1510298D1*
X1998341D1*
X1939296Y1392201D2*
X1998341D1*
X2037714Y1128279D2*
G03X2027878Y1138098I-9859J-40D01*
G01*
X2037714Y1128279D2*
Y911721D1*
G02X2027878Y901902I-9859J40D01*
G01*
X1909759D2*
G02X1899923Y915683I1966J11804D01*
G01*
Y1128279D1*
X1909759Y1138098D2*
G03X1899923Y1128279I22J-9859D01*
G01*
X1909759Y1138098D2*
X1925514D1*
X2012123D2*
X2027878D1*
X2012123Y901902D2*
X2027878D1*
X1909759D2*
X1925514D1*
X1998341Y1079049D2*
Y960951D1*
X1939296D2*
Y1079049D1*
X1998341D1*
X1939296Y960951D2*
X1998341D1*
X1193573Y2398707D2*
D10*
X1768696D1*
X1189692Y3239127D2*
X1768696D1*
X1189692D2*
Y3167944D1*
X1768696Y3239127D2*
Y3167944D1*
X497795Y1023683D2*
D30*
X667795D1*
X497795Y1177663D2*
G03X482795Y1162658I-34J-14966D01*
G01*
X682795Y1038688D2*
G02X667795Y1023683I-14987J-18D01*
G01*
X497795D2*
G02X482795Y1038688I-47J14953D01*
G01*
X682795Y1162658D2*
G03X667795Y1177663I-15008J-3D01*
G01*
X497795D1*
X482795Y1162658D2*
Y1038688D1*
X682795D2*
Y1162658D1*
Y1080677D2*
G02X682795Y1120669I-4J19996D01*
G01*
Y1163689D2*
D37*
X482795D1*
X1498234Y2154218D2*
D81*
X1495858Y2158971D1*
X1491049Y2163780D1*
X1486296Y2166156D1*
X1476734D1*
X1471926Y2163780D1*
X1467173Y2158971D1*
X1464741Y2154218D1*
X1462364Y2147033D1*
Y2135039D1*
X1464741Y2127910D1*
X1467173Y2123101D1*
X1471926Y2118348D1*
X1476734Y2115916D1*
X1486296D1*
X1491049Y2118348D1*
X1495858Y2123101D1*
X1498234Y2127910D1*
X1513674Y2156539D2*
X1518482Y2158971D1*
X1525667Y2166101D1*
Y2115916D1*
X1093735Y1718992D2*
X1091358Y1723745D1*
X1086550Y1728554D1*
X1081797Y1730930D1*
X1072235D1*
X1067427Y1728554D1*
X1062674Y1723745D1*
X1060242Y1718992D1*
X1057865Y1711807D1*
Y1699814D1*
X1060242Y1692684D1*
X1062674Y1687875D1*
X1067427Y1683122D1*
X1072235Y1680690D1*
X1081797D1*
X1086550Y1683122D1*
X1091358Y1687875D1*
X1093735Y1692684D1*
X1111606Y1718937D2*
Y1721314D1*
X1113983Y1726122D1*
X1116359Y1728499D1*
X1121168Y1730875D1*
X1130729D1*
X1135483Y1728499D1*
X1137859Y1726122D1*
X1140291Y1721314D1*
Y1716560D1*
X1137859Y1711752D1*
X1133106Y1704622D1*
X1109174Y1680690D1*
X1142668D1*
X745576Y1086107D2*
X740823Y1083730D1*
X736014Y1078922D1*
X733638Y1074168D1*
Y1064607D1*
X736014Y1059798D1*
X740823Y1055045D1*
X745576Y1052613D1*
X752761Y1050237D1*
X764755D1*
X771884Y1052613D1*
X776693Y1055045D1*
X781446Y1059798D1*
X783878Y1064607D1*
Y1074168D1*
X781446Y1078921D1*
X776693Y1083730D1*
X771884Y1086107D1*
X733693Y1130231D2*
Y1106354D1*
X755193Y1103978D1*
X752816Y1106354D1*
X750385Y1113539D1*
Y1120669D1*
X752816Y1127854D1*
X757570Y1132662D1*
X764755Y1135039D1*
X769508D1*
X776693Y1132662D1*
X781501Y1127854D1*
X783878Y1120669D1*
Y1113539D1*
X781501Y1106354D1*
X779069Y1103978D1*
X774316Y1101546D1*
X904110Y2862147D2*
Y2831030D1*
X954350D1*
X928042D2*
Y2850153D1*
X913727Y2877586D2*
X911295Y2882394D1*
X904166Y2889579D1*
X954350D1*
X813730Y2690207D2*
X856785D1*
X835286Y2668707D2*
Y2711762D1*
X836419Y2775802D2*
Y2797357D1*
X834042Y2804487D1*
X831610Y2806919D1*
X826857Y2809296D1*
X819672D1*
X814919Y2806919D1*
X812487Y2804487D1*
X810110Y2797357D1*
Y2775802D1*
X860350D1*
X826857Y2836673D2*
X829234Y2831920D1*
X834042Y2827111D1*
X841227Y2824735D1*
X845980D1*
X853165Y2827111D1*
X857918Y2831920D1*
X860350Y2836673D1*
Y2843858D1*
X857918Y2848667D1*
X853165Y2853420D1*
X845980Y2855852D1*
X841227D1*
X834042Y2853420D1*
X829234Y2848667D1*
X826857Y2843858D1*
Y2836673D1*
Y2871291D2*
X860350Y2880853D1*
X826857Y2890414D1*
X860350Y2899976D1*
X826857Y2909537D1*
X841227Y2924977D2*
Y2953662D1*
X836419D1*
X831610Y2951285D1*
X829234Y2948908D1*
X826857Y2944100D1*
Y2936915D1*
X829234Y2932162D1*
X834042Y2927353D1*
X841227Y2924977D1*
X845980D1*
X853165Y2927353D1*
X857918Y2932162D1*
X860350Y2936915D1*
Y2944100D1*
X857918Y2948908D1*
X853165Y2953662D1*
X826857Y2969101D2*
X860350D1*
X841227D2*
X834042Y2971533D1*
X829234Y2976286D1*
X826857Y2981094D1*
Y2988279D1*
X835258Y3052320D2*
Y3079954D1*
X813730Y2297695D2*
X856785D1*
X835286Y2276196D2*
Y2319251D1*
X817295Y2416784D2*
X812487Y2412031D1*
X810110Y2404846D1*
Y2395284D1*
X812487Y2388099D1*
X817295Y2383291D1*
X822049D1*
X826857Y2385723D1*
X829234Y2388099D1*
X831610Y2392852D1*
X836419Y2407222D1*
X838795Y2412031D1*
X841227Y2414407D1*
X845980Y2416784D1*
X853165D1*
X857918Y2412031D1*
X860350Y2404846D1*
Y2395284D1*
X857918Y2388099D1*
X853165Y2383291D1*
X817295Y2465717D2*
X812487Y2460963D1*
X810110Y2453778D1*
Y2444217D1*
X812487Y2437032D1*
X817295Y2432223D1*
X822049D1*
X826857Y2434655D1*
X829234Y2437032D1*
X831610Y2441785D1*
X836419Y2456155D1*
X838795Y2460963D1*
X841227Y2463340D1*
X845980Y2465717D1*
X853165D1*
X857918Y2460963D1*
X860350Y2453778D1*
Y2444217D1*
X857918Y2437032D1*
X853165Y2432223D1*
X834042Y2481156D2*
Y2502656D1*
X831610Y2509841D1*
X829234Y2512273D1*
X824480Y2514649D1*
X819672D1*
X814919Y2512273D1*
X812487Y2509841D1*
X810110Y2502656D1*
Y2481156D1*
X860350D1*
X834042Y2497903D2*
X860350Y2514649D1*
X835258Y2578689D2*
Y2606324D1*
X810110Y1825023D2*
X860350D1*
X810110Y1808276D2*
Y1841770D1*
Y1857209D2*
X860350D1*
X836419D2*
X829234Y1864394D1*
X826857Y1869202D1*
Y1876387D1*
X829234Y1881141D1*
X836419Y1883517D1*
X860350D1*
X841227Y1898956D2*
Y1927641D1*
X836419D1*
X831610Y1925265D1*
X829234Y1922888D1*
X826857Y1918080D1*
Y1910895D1*
X829234Y1906141D1*
X834042Y1901333D1*
X841227Y1898956D1*
X845980D1*
X853165Y1901333D1*
X857918Y1906141D1*
X860350Y1910895D1*
Y1918080D1*
X857918Y1922888D1*
X853165Y1927641D1*
X826857Y1943081D2*
X860350D1*
X841227D2*
X834042Y1945512D1*
X829234Y1950266D1*
X826857Y1955074D1*
Y1962259D1*
Y1977698D2*
X860350D1*
X836419D2*
X829234Y1984883D1*
X826857Y1989692D1*
Y1996822D1*
X829234Y2001630D1*
X836419Y2004007D1*
X860350D1*
X836419D2*
X829234Y2011192D1*
X826857Y2016000D1*
Y2023130D1*
X829234Y2027938D1*
X836419Y2030370D1*
X860350D1*
X810110Y2045809D2*
X812487Y2048186D1*
X810110Y2050618D1*
X807678Y2048186D1*
X810110Y2045809D1*
X826857Y2048186D2*
X860350D1*
X834042Y2092365D2*
X829234Y2089989D1*
X826857Y2082804D1*
Y2075619D1*
X829234Y2068434D1*
X834042Y2066057D1*
X838795Y2068434D1*
X841227Y2073242D1*
X843604Y2085180D1*
X845980Y2089989D1*
X850789Y2092365D1*
X853165D1*
X857918Y2089989D1*
X860350Y2082804D1*
Y2075619D1*
X857918Y2068434D1*
X853165Y2066057D1*
X810110Y2114990D2*
X850789D1*
X857918Y2117366D1*
X860350Y2122175D1*
Y2126928D1*
X826857Y2107805D2*
Y2124551D1*
Y2154305D2*
X829234Y2149552D1*
X834042Y2144744D1*
X841227Y2142367D1*
X845980D1*
X853165Y2144744D1*
X857918Y2149552D1*
X860350Y2154305D1*
Y2161490D1*
X857918Y2166299D1*
X853165Y2171052D1*
X845980Y2173484D1*
X841227D1*
X834042Y2171052D1*
X829234Y2166299D1*
X826857Y2161490D1*
Y2154305D1*
Y2188923D2*
X860350D1*
X841227D2*
X834042Y2191355D1*
X829234Y2196108D1*
X826857Y2200917D1*
Y2208102D1*
X1871904Y2570880D2*
Y2592435D1*
X1869528Y2599565D1*
X1867096Y2601997D1*
X1862343Y2604373D1*
X1855158D1*
X1850404Y2601997D1*
X1847972Y2599565D1*
X1845596Y2592435D1*
Y2570880D1*
X1895836D1*
X1862343Y2619813D2*
X1895836D1*
X1876713D2*
X1869528Y2622244D1*
X1864719Y2626998D1*
X1862343Y2631806D1*
Y2638991D1*
Y2666369D2*
X1864719Y2661615D1*
X1869528Y2656807D1*
X1876713Y2654430D1*
X1881466D1*
X1888651Y2656807D1*
X1893404Y2661615D1*
X1895836Y2666369D1*
Y2673554D1*
X1893404Y2678362D1*
X1888651Y2683115D1*
X1881466Y2685547D1*
X1876713D1*
X1869528Y2683115D1*
X1864719Y2678362D1*
X1862343Y2673554D1*
Y2666369D1*
X1864719Y2729671D2*
X1903021D1*
X1910151Y2727295D1*
X1912582Y2724918D1*
X1914959Y2720110D1*
Y2712925D1*
X1912582Y2708171D1*
X1871904Y2729671D2*
X1867151Y2724918D1*
X1864719Y2720110D1*
Y2712925D1*
X1867151Y2708171D1*
X1871904Y2703363D1*
X1879089Y2700986D1*
X1883898D1*
X1891027Y2703363D1*
X1895836Y2708171D1*
X1898212Y2712925D1*
Y2720110D1*
X1895836Y2724918D1*
X1891027Y2729671D1*
X1845596Y1908770D2*
X1895836D1*
X1845596Y1875277D1*
X1895836D1*
X1876713Y1924209D2*
Y1952894D1*
X1871904D1*
X1867096Y1950517D1*
X1864719Y1948141D1*
X1862343Y1943332D1*
Y1936147D1*
X1864719Y1931394D1*
X1869528Y1926586D1*
X1876713Y1924209D1*
X1881466D1*
X1888651Y1926586D1*
X1893404Y1931394D1*
X1895836Y1936147D1*
Y1943332D1*
X1893404Y1948141D1*
X1888651Y1952894D1*
X1862343Y1968333D2*
X1895836Y1994641D1*
X1862343D2*
X1895836Y1968333D1*
X1845596Y2017266D2*
X1886274D1*
X1893404Y2019642D1*
X1895836Y2024451D1*
Y2029204D1*
X1862343Y2010081D2*
Y2026827D1*
X1845596Y2044643D2*
X1847972Y2047020D1*
X1845596Y2049452D1*
X1843164Y2047020D1*
X1845596Y2044643D1*
X1862343Y2047020D2*
X1895836D1*
X1862343Y2076829D2*
X1864719Y2072076D1*
X1869528Y2067267D1*
X1876713Y2064891D1*
X1881466D1*
X1888651Y2067267D1*
X1893404Y2072076D1*
X1895836Y2076829D1*
Y2084014D1*
X1893404Y2088823D1*
X1888651Y2093576D1*
X1881466Y2096008D1*
X1876713D1*
X1869528Y2093576D1*
X1864719Y2088823D1*
X1862343Y2084014D1*
Y2076829D1*
Y2111447D2*
X1895836D1*
X1871904D2*
X1864719Y2118632D1*
X1862343Y2123440D1*
Y2130570D1*
X1864719Y2135379D1*
X1871904Y2137755D1*
X1895836D1*
X860350Y1447471D2*
X810110D1*
X860350Y1428348D1*
X810110Y1409225D1*
X860350D1*
Y1501212D2*
X810110Y1482034D1*
X860350Y1462911D1*
X843604Y1470096D2*
Y1494027D1*
X810110Y1516652D2*
X860350Y1550145D1*
X810110D2*
X860350Y1516652D1*
X817295Y1594269D2*
X812542Y1591892D1*
X810166Y1584707D1*
Y1579954D1*
X812542Y1572769D1*
X819727Y1567961D1*
X831665Y1565584D1*
X843604D1*
X853165Y1567961D1*
X857974Y1572769D1*
X860350Y1579954D1*
Y1582331D1*
X857974Y1589461D1*
X853165Y1594269D1*
X845980Y1596646D1*
X843604D1*
X836419Y1594269D1*
X831665Y1589461D1*
X829289Y1582331D1*
Y1579954D1*
X831665Y1572769D1*
X836419Y1567961D1*
X843604Y1565584D1*
X817295Y1640770D2*
X812542Y1638393D1*
X810166Y1631208D1*
Y1626455D1*
X812542Y1619270D1*
X819727Y1614461D1*
X831665Y1612085D1*
X843604D1*
X853165Y1614461D1*
X857974Y1619270D1*
X860350Y1626455D1*
Y1628832D1*
X857974Y1635961D1*
X853165Y1640770D1*
X845980Y1643146D1*
X843604D1*
X836419Y1640770D1*
X831665Y1635961D1*
X829289Y1628832D1*
Y1626455D1*
X831665Y1619270D1*
X836419Y1614461D1*
X843604Y1612085D1*
X860350Y1668147D2*
X810166Y1692079D1*
Y1658586D1*
Y1736203D2*
Y1712327D1*
X831665Y1709950D1*
X829289Y1712327D1*
X826857Y1719512D1*
Y1726641D1*
X829289Y1733826D1*
X834042Y1738635D1*
X841227Y1741011D1*
X845980D1*
X853165Y1738635D1*
X857974Y1733826D1*
X860350Y1726641D1*
Y1719512D1*
X857974Y1712327D1*
X855542Y1709950D1*
X850789Y1707518D1*
X1358435Y2329134D2*
X1379934D1*
X1387119Y2331566D1*
X1389551Y2333942D1*
X1391928Y2338696D1*
Y2343504D1*
X1389551Y2348257D1*
X1387119Y2350689D1*
X1379934Y2353066D1*
X1358435D1*
Y2302826D1*
X1375181Y2329134D2*
X1391928Y2302826D1*
X1407367Y2343449D2*
X1412176Y2345881D1*
X1419361Y2353010D1*
Y2302826D1*
X982724Y2329134D2*
X1004224D1*
X1011409Y2331566D1*
X1013841Y2333942D1*
X1016217Y2338696D1*
Y2343504D1*
X1013841Y2348257D1*
X1011409Y2350689D1*
X1004224Y2353066D1*
X982724D1*
Y2302826D1*
X999471Y2329134D2*
X1016217Y2302826D1*
X1034088Y2341072D2*
Y2343449D1*
X1036465Y2348257D1*
X1038842Y2350634D1*
X1043650Y2353010D1*
X1053212D1*
X1057965Y2350634D1*
X1060342Y2348257D1*
X1062773Y2343449D1*
Y2338696D1*
X1060342Y2333887D1*
X1055588Y2326757D1*
X1031657Y2302826D1*
X1065150D1*
X982724Y2132283D2*
X1004224D1*
X1011409Y2134715D1*
X1013841Y2137092D1*
X1016217Y2141845D1*
Y2146654D1*
X1013841Y2151407D1*
X1011409Y2153839D1*
X1004224Y2156215D1*
X982724D1*
Y2105975D1*
X999471Y2132283D2*
X1016217Y2105975D1*
X1036465Y2156160D2*
X1062718D1*
X1048403Y2137037D1*
X1055588D1*
X1060342Y2134660D1*
X1062718Y2132283D1*
X1065150Y2125098D1*
Y2120345D1*
X1062718Y2113160D1*
X1057965Y2108352D1*
X1050780Y2105975D1*
X1043595D1*
X1036465Y2108352D1*
X1034088Y2110784D1*
X1031657Y2115537D1*
X981536Y1935433D2*
X1003036D1*
X1010221Y1937865D1*
X1012652Y1940242D1*
X1015029Y1944995D1*
Y1949803D1*
X1012652Y1954556D1*
X1010221Y1956988D1*
X1003036Y1959365D1*
X981536D1*
Y1909125D1*
X998282Y1935433D2*
X1015029Y1909125D1*
X1054400D2*
Y1959310D1*
X1030468Y1925871D1*
X1066338D1*
X1640542Y1395421D2*
Y1416921D1*
X1638110Y1424106D1*
X1635734Y1426538D1*
X1630980Y1428914D1*
X1626172D1*
X1621419Y1426538D1*
X1618987Y1424106D1*
X1616610Y1416921D1*
Y1395421D1*
X1666850D1*
X1640542Y1412168D2*
X1666850Y1428914D1*
X1616666Y1473038D2*
Y1449162D1*
X1638165Y1446785D1*
X1635789Y1449162D1*
X1633357Y1456347D1*
Y1463477D1*
X1635789Y1470662D1*
X1640542Y1475470D1*
X1647727Y1477847D1*
X1652480D1*
X1659665Y1475470D1*
X1664474Y1470662D1*
X1666850Y1463477D1*
Y1456347D1*
X1664474Y1449162D1*
X1662042Y1446785D1*
X1657289Y1444354D1*
X1646791Y1071468D2*
Y1092968D1*
X1644360Y1100153D1*
X1641983Y1102585D1*
X1637230Y1104962D1*
X1632421D1*
X1627668Y1102585D1*
X1625236Y1100153D1*
X1622860Y1092968D1*
Y1071468D1*
X1673100D1*
X1646791Y1088215D2*
X1673100Y1104962D1*
X1632477Y1120401D2*
X1630045Y1125209D1*
X1622915Y1132394D1*
X1673100D1*
X1622915Y1162204D2*
X1625292Y1155019D1*
X1632477Y1150210D1*
X1644415Y1147834D1*
X1651600D1*
X1663538Y1150210D1*
X1670723Y1155019D1*
X1673100Y1162204D1*
Y1166957D1*
X1670723Y1174142D1*
X1663538Y1178895D1*
X1651600Y1181327D1*
X1644415D1*
X1632477Y1178895D1*
X1625292Y1174142D1*
X1622915Y1166957D1*
Y1162204D1*
X1632477Y1178895D2*
X1663538Y1150210D1*
X1005201Y2611382D2*
Y2561142D1*
X988454Y2611382D2*
X1021948D1*
X1037387Y2601765D2*
X1042195Y2604197D1*
X1049380Y2611327D1*
Y2561142D1*
X1219519Y1381657D2*
Y1345788D1*
X1221895Y1338602D1*
X1226704Y1333849D1*
X1233889Y1331417D1*
X1238642D1*
X1245827Y1333849D1*
X1250635Y1338602D1*
X1253012Y1345788D1*
Y1381657D1*
X1268451Y1372041D2*
X1273260Y1374472D1*
X1280445Y1381602D1*
Y1331417D1*
X1850467Y1352224D2*
Y1373723D1*
X1848035Y1380909D1*
X1845659Y1383340D1*
X1840905Y1385717D1*
X1836097D1*
X1831344Y1383340D1*
X1828912Y1380909D1*
X1826535Y1373723D1*
Y1352224D1*
X1876775D1*
X1850467Y1368970D2*
X1876775Y1385717D1*
X1857652Y1401156D2*
Y1429841D1*
X1852844D1*
X1848035Y1427464D1*
X1845659Y1425088D1*
X1843282Y1420279D1*
Y1413094D1*
X1845659Y1408341D1*
X1850467Y1403533D1*
X1857652Y1401156D1*
X1862405D1*
X1869590Y1403533D1*
X1874344Y1408341D1*
X1876775Y1413094D1*
Y1420279D1*
X1874344Y1425088D1*
X1869590Y1429841D1*
X1850467Y1471589D2*
X1845659Y1469212D1*
X1843282Y1462027D1*
Y1454842D1*
X1845659Y1447657D1*
X1850467Y1445280D1*
X1855220Y1447657D1*
X1857652Y1452465D1*
X1860029Y1464404D1*
X1862405Y1469212D1*
X1867214Y1471589D1*
X1869590D1*
X1874344Y1469212D1*
X1876775Y1462027D1*
Y1454842D1*
X1874344Y1447657D1*
X1869590Y1445280D1*
X1857652Y1487028D2*
Y1515713D1*
X1852844D1*
X1848035Y1513336D1*
X1845659Y1510959D1*
X1843282Y1506151D1*
Y1498966D1*
X1845659Y1494213D1*
X1850467Y1489404D1*
X1857652Y1487028D1*
X1862405D1*
X1869590Y1489404D1*
X1874344Y1494213D1*
X1876775Y1498966D1*
Y1506151D1*
X1874344Y1510959D1*
X1869590Y1515713D1*
X1826535Y1538337D2*
X1867214D1*
X1874344Y1540714D1*
X1876775Y1545522D1*
Y1550275D1*
X1843282Y1531152D2*
Y1547899D1*
X1826535Y964029D2*
Y932913D1*
X1876775D1*
X1850467D2*
Y952036D1*
X1826535Y979468D2*
X1876775D1*
X1843282Y1023593D2*
X1876775D1*
X1850467D2*
X1845659Y1018839D1*
X1843282Y1014031D1*
Y1006901D1*
X1845659Y1002093D1*
X1850467Y997340D1*
X1857652Y994908D1*
X1862405D1*
X1869590Y997340D1*
X1874344Y1002093D1*
X1876775Y1006901D1*
Y1014031D1*
X1874344Y1018839D1*
X1869590Y1023593D1*
X1850467Y1065340D2*
X1845659Y1062963D1*
X1843282Y1055778D1*
Y1048593D1*
X1845659Y1041408D1*
X1850467Y1039032D1*
X1855220Y1041408D1*
X1857652Y1046217D1*
X1860029Y1058155D1*
X1862405Y1062963D1*
X1867214Y1065340D1*
X1869590D1*
X1874344Y1062963D1*
X1876775Y1055778D1*
Y1048593D1*
X1874344Y1041408D1*
X1869590Y1039032D1*
X1826535Y1080779D2*
X1876775D1*
X1852844D2*
X1845659Y1087964D1*
X1843282Y1092773D1*
Y1099958D1*
X1845659Y1104711D1*
X1852844Y1107088D1*
X1876775D1*
X1440641Y3312350D2*
Y3276480D1*
X1443017Y3269295D1*
X1447826Y3264542D1*
X1455011Y3262110D1*
X1459764D1*
X1466949Y3264542D1*
X1471757Y3269295D1*
X1474134Y3276480D1*
Y3312350D1*
X1513505Y3262110D2*
Y3312295D1*
X1489573Y3278857D1*
X1525443D1*
X541582Y1334896D2*
Y1299026D1*
X543959Y1291841D1*
X548767Y1287088D1*
X555952Y1284656D1*
X560706D1*
X567891Y1287088D1*
X572699Y1291841D1*
X575076Y1299026D1*
Y1334896D1*
X619200Y1334841D2*
X595323D1*
X592947Y1313341D1*
X595323Y1315718D1*
X602508Y1318150D1*
X609638D1*
X616823Y1315718D1*
X621632Y1310965D1*
X624008Y1303780D1*
Y1299026D1*
X621632Y1291841D1*
X616823Y1287033D1*
X609638Y1284656D1*
X602508D1*
X595323Y1287033D1*
X592947Y1289465D1*
X590515Y1294218D1*
X1353656Y3183503D2*
D84*
X1303958D1*
Y3103119D1*
X1353656D1*
X1303958Y3145212D2*
X1334555D1*
X1431948Y3172007D2*
X1424343Y3179701D1*
X1412847Y3183503D1*
X1397549D1*
X1386053Y3179701D1*
X1378359Y3172007D1*
Y3164402D1*
X1382250Y3156708D1*
X1386053Y3152906D1*
X1393658Y3149103D1*
X1416650Y3141410D1*
X1424343Y3137607D1*
X1428146Y3133716D1*
X1431948Y3126111D1*
Y3114615D1*
X1424343Y3107010D1*
X1412847Y3103119D1*
X1397549D1*
X1386053Y3107010D1*
X1378359Y3114615D1*
X1456651Y3141410D2*
X1491139D1*
X1502547Y3145212D1*
X1506438Y3149103D1*
X1510240Y3156708D1*
Y3168205D1*
X1506438Y3175810D1*
X1502547Y3179701D1*
X1491139Y3183503D1*
X1456651D1*
Y3103119D1*
X1542637Y3183415D2*
X1584642D1*
X1561738Y3152818D1*
X1573234D1*
X1580839Y3149015D1*
X1584642Y3145212D1*
X1588533Y3133716D1*
Y3126111D1*
X1584642Y3114615D1*
X1577037Y3106922D1*
X1565540Y3103119D1*
X1554044D1*
X1542637Y3106922D1*
X1538834Y3110813D1*
X1534943Y3118418D1*
X1617126Y3164314D2*
Y3168116D1*
X1620929Y3175810D1*
X1624731Y3179612D1*
X1632425Y3183415D1*
X1647724D1*
X1655329Y3179612D1*
X1659131Y3175810D1*
X1663022Y3168116D1*
Y3160511D1*
X1659131Y3152818D1*
X1651526Y3141410D1*
X1613235Y3103119D1*
X1666825D1*
M02*
